M48
; DRILL file {KiCad 6.0.11-2627ca5db0~126~ubuntu20.04.1} date lun 8 apr 2024, 20:38:02
; FORMAT={-:-/ absolute / metric / decimal}
; #@! TF.CreationDate,2024-04-08T20:38:02+02:00
; #@! TF.GenerationSoftware,Kicad,Pcbnew,6.0.11-2627ca5db0~126~ubuntu20.04.1
; #@! TF.FileFunction,Plated,1,2,PTH
FMAT,2
METRIC
; #@! TA.AperFunction,Plated,PTH,ViaDrill
T1C0.400
; #@! TA.AperFunction,Plated,PTH,ComponentDrill
T2C0.800
; #@! TA.AperFunction,Plated,PTH,ComponentDrill
T3C0.900
; #@! TA.AperFunction,Plated,PTH,ComponentDrill
T4C0.990
; #@! TA.AperFunction,Plated,PTH,ComponentDrill
T5C1.000
; #@! TA.AperFunction,Plated,PTH,ComponentDrill
T6C1.300
; #@! TA.AperFunction,Plated,PTH,ComponentDrill
T7C1.500
; #@! TA.AperFunction,Plated,PTH,ComponentDrill
T8C3.200
%
G90
G05
T1
X83.475Y-122.694
X90.765Y-109.912
X100.045Y-95.833
T2
X88.646Y-92.964
X88.646Y-100.584
X92.456Y-92.964
X92.456Y-100.584
X96.266Y-92.964
X96.266Y-100.584
X100.076Y-92.964
X100.076Y-100.584
X114.808Y-92.964
X114.808Y-100.584
X118.364Y-92.964
X118.364Y-100.584
X119.634Y-70.906
X119.634Y-75.906
X122.174Y-92.964
X122.174Y-100.584
T3
X83.048Y-85.598
X83.053Y-80.772
X83.053Y-90.424
X85.588Y-85.598
X85.593Y-80.772
X85.593Y-90.424
T4
X125.525Y-81.291
X125.525Y-85.791
T5
X88.138Y-104.15
X88.138Y-119.39
X90.678Y-104.15
X90.678Y-119.39
X93.218Y-104.15
X93.218Y-119.39
X95.758Y-104.15
X95.758Y-119.39
X98.298Y-104.15
X98.298Y-119.39
X99.504Y-71.442
X100.838Y-104.15
X100.838Y-119.39
X102.044Y-71.442
X103.378Y-104.15
X103.378Y-119.39
X103.632Y-93.208
X103.632Y-95.748
X103.632Y-98.288
X103.632Y-100.828
X104.584Y-71.442
X105.918Y-104.15
X105.918Y-119.39
X107.124Y-71.442
X108.458Y-104.15
X108.458Y-119.39
X110.998Y-104.15
X110.998Y-119.39
X111.252Y-93.208
X111.252Y-95.748
X111.252Y-98.288
X111.252Y-100.828
X113.538Y-104.15
X113.538Y-119.39
X116.078Y-104.15
X116.078Y-119.39
X118.618Y-104.15
X118.618Y-119.39
X121.158Y-104.15
X121.158Y-119.39
X123.698Y-104.15
X123.698Y-119.39
X125.984Y-95.504
X125.984Y-98.044
T6
X123.035Y-80.041
X123.035Y-87.051
T7
X85.972Y-62.182
X88.472Y-52.682
X88.472Y-64.682
X93.472Y-62.182
X98.472Y-52.682
X98.472Y-64.682
X100.972Y-62.182
X108.832Y-62.182
X111.332Y-52.682
X111.332Y-64.682
X116.332Y-62.182
X121.332Y-52.682
X121.332Y-64.682
X123.832Y-62.182
T8
X84.836Y-73.152
X124.714Y-73.152
T0
M30
