%TF.GenerationSoftware,KiCad,Pcbnew,6.0.11-2627ca5db0~126~ubuntu20.04.1*%
%TF.CreationDate,2024-04-08T20:38:18+02:00*%
%TF.ProjectId,polyTimb64,706f6c79-5469-46d6-9236-342e6b696361,rev?*%
%TF.SameCoordinates,Original*%
%TF.FileFunction,Soldermask,Bot*%
%TF.FilePolarity,Negative*%
%FSLAX46Y46*%
G04 Gerber Fmt 4.6, Leading zero omitted, Abs format (unit mm)*
G04 Created by KiCad (PCBNEW 6.0.11-2627ca5db0~126~ubuntu20.04.1) date 2024-04-08 20:38:18*
%MOMM*%
%LPD*%
G01*
G04 APERTURE LIST*
%ADD10C,2.100000*%
%ADD11C,1.750000*%
%ADD12R,1.600000X1.600000*%
%ADD13O,1.600000X1.600000*%
%ADD14O,1.600000X2.000000*%
%ADD15R,1.800000X1.800000*%
%ADD16C,1.800000*%
%ADD17C,2.500000*%
%ADD18C,1.600000*%
%ADD19C,5.600000*%
%ADD20C,3.600000*%
%ADD21R,1.700000X1.700000*%
%ADD22O,1.700000X1.700000*%
%ADD23R,2.200000X6.000000*%
G04 APERTURE END LIST*
D10*
%TO.C,Reset*%
X123035500Y-80041000D03*
X123035500Y-87051000D03*
D11*
X125525500Y-81291000D03*
X125525500Y-85791000D03*
%TD*%
D12*
%TO.C,D4*%
X114808000Y-100584000D03*
D13*
X114808000Y-92964000D03*
%TD*%
D14*
%TO.C,Brd1*%
X99504000Y-71442000D03*
X102044000Y-71442000D03*
X104584000Y-71442000D03*
X107124000Y-71442000D03*
%TD*%
D15*
%TO.C,D3*%
X83053000Y-80772000D03*
D16*
X85593000Y-80772000D03*
%TD*%
D15*
%TO.C,D2*%
X83048000Y-85598000D03*
D16*
X85588000Y-85598000D03*
%TD*%
D15*
%TO.C,D1*%
X83053000Y-90424000D03*
D16*
X85593000Y-90424000D03*
%TD*%
D17*
%TO.C,THRU1*%
X98472000Y-52682000D03*
X88472000Y-52682000D03*
X85972000Y-62182000D03*
X93472000Y-62182000D03*
X100972000Y-62182000D03*
X88472000Y-64682000D03*
X98472000Y-64682000D03*
%TD*%
%TO.C,IN1*%
X121332000Y-64682000D03*
X111332000Y-64682000D03*
X123832000Y-62182000D03*
X116332000Y-62182000D03*
X108832000Y-62182000D03*
X111332000Y-52682000D03*
X121332000Y-52682000D03*
%TD*%
D18*
%TO.C,R1*%
X122174000Y-92964000D03*
D13*
X122174000Y-100584000D03*
%TD*%
D18*
%TO.C,R5*%
X92456000Y-92964000D03*
D13*
X92456000Y-100584000D03*
%TD*%
D19*
%TO.C,H1*%
X84836000Y-73152000D03*
D20*
X84836000Y-73152000D03*
%TD*%
D18*
%TO.C,C1*%
X119634000Y-75906000D03*
X119634000Y-70906000D03*
%TD*%
D13*
%TO.C,A1*%
X123698000Y-119390000D03*
X121158000Y-119390000D03*
X118618000Y-119390000D03*
X116078000Y-119390000D03*
X113538000Y-119390000D03*
X110998000Y-119390000D03*
X108458000Y-119390000D03*
X105918000Y-119390000D03*
X103378000Y-119390000D03*
X100838000Y-119390000D03*
X98298000Y-119390000D03*
X95758000Y-119390000D03*
X93218000Y-119390000D03*
X90678000Y-119390000D03*
X88138000Y-119390000D03*
X88138000Y-104150000D03*
X90678000Y-104150000D03*
X93218000Y-104150000D03*
X95758000Y-104150000D03*
X98298000Y-104150000D03*
X100838000Y-104150000D03*
X103378000Y-104150000D03*
X105918000Y-104150000D03*
X108458000Y-104150000D03*
X110998000Y-104150000D03*
X113538000Y-104150000D03*
X116078000Y-104150000D03*
X118618000Y-104150000D03*
X121158000Y-104150000D03*
D12*
X123698000Y-104150000D03*
%TD*%
D18*
%TO.C,R6*%
X88646000Y-92964000D03*
D13*
X88646000Y-100584000D03*
%TD*%
D18*
%TO.C,U1*%
X103632000Y-100828000D03*
X103632000Y-98288000D03*
X103632000Y-95748000D03*
X103632000Y-93208000D03*
X111252000Y-93208000D03*
X111252000Y-95748000D03*
X111252000Y-98288000D03*
D12*
X111252000Y-100828000D03*
%TD*%
D21*
%TO.C,J2*%
X125984000Y-98044000D03*
D22*
X125984000Y-95504000D03*
%TD*%
D13*
%TO.C,R3*%
X100076000Y-92964000D03*
D18*
X100076000Y-100584000D03*
%TD*%
D13*
%TO.C,R2*%
X118364000Y-100584000D03*
D18*
X118364000Y-92964000D03*
%TD*%
D23*
%TO.C,CON1*%
X83376000Y-126296500D03*
X126936000Y-126296500D03*
X122976000Y-126296500D03*
X119016000Y-126296500D03*
X115056000Y-126296500D03*
X111096000Y-126296500D03*
X107136000Y-126296500D03*
X103176000Y-126296500D03*
X99216000Y-126296500D03*
X95256000Y-126296500D03*
X91296000Y-126296500D03*
X87336000Y-126296500D03*
%TD*%
D18*
%TO.C,R4*%
X96266000Y-100584000D03*
D13*
X96266000Y-92964000D03*
%TD*%
D19*
%TO.C,H2*%
X124714000Y-73152000D03*
D20*
X124714000Y-73152000D03*
%TD*%
M02*
