%TF.GenerationSoftware,KiCad,Pcbnew,6.0.11-2627ca5db0~126~ubuntu20.04.1*%
%TF.CreationDate,2024-04-08T20:38:00+02:00*%
%TF.ProjectId,polyTimb64,706f6c79-5469-46d6-9236-342e6b696361,rev?*%
%TF.SameCoordinates,Original*%
%TF.FileFunction,Drillmap*%
%TF.FilePolarity,Positive*%
%FSLAX45Y45*%
G04 Gerber Fmt 4.5, Leading zero omitted, Abs format (unit mm)*
G04 Created by KiCad (PCBNEW 6.0.11-2627ca5db0~126~ubuntu20.04.1) date 2024-04-08 20:38:00*
%MOMM*%
%LPD*%
G01*
G04 APERTURE LIST*
%ADD10C,0.100000*%
%ADD11C,0.200000*%
G04 APERTURE END LIST*
D10*
X12954000Y-4902200D02*
X8102600Y-4902200D01*
X12954000Y-12954000D02*
X12954000Y-4902200D01*
X8102600Y-12954000D02*
X12954000Y-12954000D01*
X8102600Y-4902200D02*
X8102600Y-12954000D01*
D11*
X8355219Y-13269476D02*
X8355219Y-13069476D01*
X8402838Y-13069476D01*
X8431410Y-13079000D01*
X8450457Y-13098048D01*
X8459981Y-13117095D01*
X8469505Y-13155190D01*
X8469505Y-13183762D01*
X8459981Y-13221857D01*
X8450457Y-13240905D01*
X8431410Y-13259952D01*
X8402838Y-13269476D01*
X8355219Y-13269476D01*
X8555219Y-13269476D02*
X8555219Y-13136143D01*
X8555219Y-13174238D02*
X8564743Y-13155190D01*
X8574267Y-13145667D01*
X8593314Y-13136143D01*
X8612362Y-13136143D01*
X8679029Y-13269476D02*
X8679029Y-13136143D01*
X8679029Y-13069476D02*
X8669505Y-13079000D01*
X8679029Y-13088524D01*
X8688552Y-13079000D01*
X8679029Y-13069476D01*
X8679029Y-13088524D01*
X8802838Y-13269476D02*
X8783790Y-13259952D01*
X8774267Y-13240905D01*
X8774267Y-13069476D01*
X8907600Y-13269476D02*
X8888552Y-13259952D01*
X8879029Y-13240905D01*
X8879029Y-13069476D01*
X9136171Y-13269476D02*
X9136171Y-13069476D01*
X9202838Y-13212333D01*
X9269505Y-13069476D01*
X9269505Y-13269476D01*
X9450457Y-13269476D02*
X9450457Y-13164714D01*
X9440933Y-13145667D01*
X9421886Y-13136143D01*
X9383790Y-13136143D01*
X9364743Y-13145667D01*
X9450457Y-13259952D02*
X9431410Y-13269476D01*
X9383790Y-13269476D01*
X9364743Y-13259952D01*
X9355219Y-13240905D01*
X9355219Y-13221857D01*
X9364743Y-13202809D01*
X9383790Y-13193286D01*
X9431410Y-13193286D01*
X9450457Y-13183762D01*
X9545695Y-13136143D02*
X9545695Y-13336143D01*
X9545695Y-13145667D02*
X9564743Y-13136143D01*
X9602838Y-13136143D01*
X9621886Y-13145667D01*
X9631410Y-13155190D01*
X9640933Y-13174238D01*
X9640933Y-13231381D01*
X9631410Y-13250428D01*
X9621886Y-13259952D01*
X9602838Y-13269476D01*
X9564743Y-13269476D01*
X9545695Y-13259952D01*
X9726648Y-13250428D02*
X9736171Y-13259952D01*
X9726648Y-13269476D01*
X9717124Y-13259952D01*
X9726648Y-13250428D01*
X9726648Y-13269476D01*
X9726648Y-13145667D02*
X9736171Y-13155190D01*
X9726648Y-13164714D01*
X9717124Y-13155190D01*
X9726648Y-13145667D01*
X9726648Y-13164714D01*
M02*
