%TF.GenerationSoftware,KiCad,Pcbnew,6.0.11-2627ca5db0~126~ubuntu20.04.1*%
%TF.CreationDate,2024-04-08T20:38:00+02:00*%
%TF.ProjectId,polyTimb64,706f6c79-5469-46d6-9236-342e6b696361,rev?*%
%TF.SameCoordinates,Original*%
%TF.FileFunction,Drillmap*%
%TF.FilePolarity,Positive*%
%FSLAX45Y45*%
G04 Gerber Fmt 4.5, Leading zero omitted, Abs format (unit mm)*
G04 Created by KiCad (PCBNEW 6.0.11-2627ca5db0~126~ubuntu20.04.1) date 2024-04-08 20:38:00*
%MOMM*%
%LPD*%
G01*
G04 APERTURE LIST*
%ADD10C,0.100000*%
%ADD11C,0.200000*%
%ADD12C,0.040000*%
%ADD13C,0.080000*%
%ADD14C,0.090000*%
%ADD15C,0.099000*%
%ADD16C,0.130000*%
%ADD17C,0.150000*%
%ADD18C,0.320000*%
G04 APERTURE END LIST*
D10*
X12954000Y-4902200D02*
X8102600Y-4902200D01*
X12954000Y-12954000D02*
X12954000Y-4902200D01*
X8102600Y-12954000D02*
X12954000Y-12954000D01*
X8102600Y-4902200D02*
X8102600Y-12954000D01*
D11*
D12*
X8327470Y-12249420D02*
X8367470Y-12289420D01*
X8367470Y-12249420D02*
X8327470Y-12289420D01*
X9056500Y-10971170D02*
X9096500Y-11011170D01*
X9096500Y-10971170D02*
X9056500Y-11011170D01*
X9984510Y-9563290D02*
X10024510Y-9603290D01*
X10024510Y-9563290D02*
X9984510Y-9603290D01*
D13*
X8904600Y-9296400D02*
G75*
G03*
X8904600Y-9296400I-40000J0D01*
G01*
X8904600Y-10058400D02*
G75*
G03*
X8904600Y-10058400I-40000J0D01*
G01*
X9285600Y-9296400D02*
G75*
G03*
X9285600Y-9296400I-40000J0D01*
G01*
X9285600Y-10058400D02*
G75*
G03*
X9285600Y-10058400I-40000J0D01*
G01*
X9666600Y-9296400D02*
G75*
G03*
X9666600Y-9296400I-40000J0D01*
G01*
X9666600Y-10058400D02*
G75*
G03*
X9666600Y-10058400I-40000J0D01*
G01*
X10047600Y-9296400D02*
G75*
G03*
X10047600Y-9296400I-40000J0D01*
G01*
X10047600Y-10058400D02*
G75*
G03*
X10047600Y-10058400I-40000J0D01*
G01*
X11520800Y-9296400D02*
G75*
G03*
X11520800Y-9296400I-40000J0D01*
G01*
X11520800Y-10058400D02*
G75*
G03*
X11520800Y-10058400I-40000J0D01*
G01*
X11876400Y-9296400D02*
G75*
G03*
X11876400Y-9296400I-40000J0D01*
G01*
X11876400Y-10058400D02*
G75*
G03*
X11876400Y-10058400I-40000J0D01*
G01*
X12003400Y-7090600D02*
G75*
G03*
X12003400Y-7090600I-40000J0D01*
G01*
X12003400Y-7590600D02*
G75*
G03*
X12003400Y-7590600I-40000J0D01*
G01*
X12257400Y-9296400D02*
G75*
G03*
X12257400Y-9296400I-40000J0D01*
G01*
X12257400Y-10058400D02*
G75*
G03*
X12257400Y-10058400I-40000J0D01*
G01*
D14*
X8304800Y-8514800D02*
X8304800Y-8604800D01*
X8259800Y-8559800D02*
X8349800Y-8559800D01*
X8305300Y-8032200D02*
X8305300Y-8122200D01*
X8260300Y-8077200D02*
X8350300Y-8077200D01*
X8305300Y-8997400D02*
X8305300Y-9087400D01*
X8260300Y-9042400D02*
X8350300Y-9042400D01*
X8558800Y-8514800D02*
X8558800Y-8604800D01*
X8513800Y-8559800D02*
X8603800Y-8559800D01*
X8559300Y-8032200D02*
X8559300Y-8122200D01*
X8514300Y-8077200D02*
X8604300Y-8077200D01*
X8559300Y-8997400D02*
X8559300Y-9087400D01*
X8514300Y-9042400D02*
X8604300Y-9042400D01*
D15*
X12587552Y-8164102D02*
X12587552Y-8094098D01*
X12517548Y-8094098D01*
X12517548Y-8164102D01*
X12587552Y-8164102D01*
X12587552Y-8614102D02*
X12587552Y-8544098D01*
X12517548Y-8544098D01*
X12517548Y-8614102D01*
X12587552Y-8614102D01*
D10*
X8813800Y-10465000D02*
X8863800Y-10415000D01*
X8813800Y-10365000D01*
X8763800Y-10415000D01*
X8813800Y-10465000D01*
X8813800Y-11989000D02*
X8863800Y-11939000D01*
X8813800Y-11889000D01*
X8763800Y-11939000D01*
X8813800Y-11989000D01*
X9067800Y-10465000D02*
X9117800Y-10415000D01*
X9067800Y-10365000D01*
X9017800Y-10415000D01*
X9067800Y-10465000D01*
X9067800Y-11989000D02*
X9117800Y-11939000D01*
X9067800Y-11889000D01*
X9017800Y-11939000D01*
X9067800Y-11989000D01*
X9321800Y-10465000D02*
X9371800Y-10415000D01*
X9321800Y-10365000D01*
X9271800Y-10415000D01*
X9321800Y-10465000D01*
X9321800Y-11989000D02*
X9371800Y-11939000D01*
X9321800Y-11889000D01*
X9271800Y-11939000D01*
X9321800Y-11989000D01*
X9575800Y-10465000D02*
X9625800Y-10415000D01*
X9575800Y-10365000D01*
X9525800Y-10415000D01*
X9575800Y-10465000D01*
X9575800Y-11989000D02*
X9625800Y-11939000D01*
X9575800Y-11889000D01*
X9525800Y-11939000D01*
X9575800Y-11989000D01*
X9829800Y-10465000D02*
X9879800Y-10415000D01*
X9829800Y-10365000D01*
X9779800Y-10415000D01*
X9829800Y-10465000D01*
X9829800Y-11989000D02*
X9879800Y-11939000D01*
X9829800Y-11889000D01*
X9779800Y-11939000D01*
X9829800Y-11989000D01*
X9950400Y-7194200D02*
X10000400Y-7144200D01*
X9950400Y-7094200D01*
X9900400Y-7144200D01*
X9950400Y-7194200D01*
X10083800Y-10465000D02*
X10133800Y-10415000D01*
X10083800Y-10365000D01*
X10033800Y-10415000D01*
X10083800Y-10465000D01*
X10083800Y-11989000D02*
X10133800Y-11939000D01*
X10083800Y-11889000D01*
X10033800Y-11939000D01*
X10083800Y-11989000D01*
X10204400Y-7194200D02*
X10254400Y-7144200D01*
X10204400Y-7094200D01*
X10154400Y-7144200D01*
X10204400Y-7194200D01*
X10337800Y-10465000D02*
X10387800Y-10415000D01*
X10337800Y-10365000D01*
X10287800Y-10415000D01*
X10337800Y-10465000D01*
X10337800Y-11989000D02*
X10387800Y-11939000D01*
X10337800Y-11889000D01*
X10287800Y-11939000D01*
X10337800Y-11989000D01*
X10363200Y-9370800D02*
X10413200Y-9320800D01*
X10363200Y-9270800D01*
X10313200Y-9320800D01*
X10363200Y-9370800D01*
X10363200Y-9624800D02*
X10413200Y-9574800D01*
X10363200Y-9524800D01*
X10313200Y-9574800D01*
X10363200Y-9624800D01*
X10363200Y-9878800D02*
X10413200Y-9828800D01*
X10363200Y-9778800D01*
X10313200Y-9828800D01*
X10363200Y-9878800D01*
X10363200Y-10132800D02*
X10413200Y-10082800D01*
X10363200Y-10032800D01*
X10313200Y-10082800D01*
X10363200Y-10132800D01*
X10458400Y-7194200D02*
X10508400Y-7144200D01*
X10458400Y-7094200D01*
X10408400Y-7144200D01*
X10458400Y-7194200D01*
X10591800Y-10465000D02*
X10641800Y-10415000D01*
X10591800Y-10365000D01*
X10541800Y-10415000D01*
X10591800Y-10465000D01*
X10591800Y-11989000D02*
X10641800Y-11939000D01*
X10591800Y-11889000D01*
X10541800Y-11939000D01*
X10591800Y-11989000D01*
X10712400Y-7194200D02*
X10762400Y-7144200D01*
X10712400Y-7094200D01*
X10662400Y-7144200D01*
X10712400Y-7194200D01*
X10845800Y-10465000D02*
X10895800Y-10415000D01*
X10845800Y-10365000D01*
X10795800Y-10415000D01*
X10845800Y-10465000D01*
X10845800Y-11989000D02*
X10895800Y-11939000D01*
X10845800Y-11889000D01*
X10795800Y-11939000D01*
X10845800Y-11989000D01*
X11099800Y-10465000D02*
X11149800Y-10415000D01*
X11099800Y-10365000D01*
X11049800Y-10415000D01*
X11099800Y-10465000D01*
X11099800Y-11989000D02*
X11149800Y-11939000D01*
X11099800Y-11889000D01*
X11049800Y-11939000D01*
X11099800Y-11989000D01*
X11125200Y-9370800D02*
X11175200Y-9320800D01*
X11125200Y-9270800D01*
X11075200Y-9320800D01*
X11125200Y-9370800D01*
X11125200Y-9624800D02*
X11175200Y-9574800D01*
X11125200Y-9524800D01*
X11075200Y-9574800D01*
X11125200Y-9624800D01*
X11125200Y-9878800D02*
X11175200Y-9828800D01*
X11125200Y-9778800D01*
X11075200Y-9828800D01*
X11125200Y-9878800D01*
X11125200Y-10132800D02*
X11175200Y-10082800D01*
X11125200Y-10032800D01*
X11075200Y-10082800D01*
X11125200Y-10132800D01*
X11353800Y-10465000D02*
X11403800Y-10415000D01*
X11353800Y-10365000D01*
X11303800Y-10415000D01*
X11353800Y-10465000D01*
X11353800Y-11989000D02*
X11403800Y-11939000D01*
X11353800Y-11889000D01*
X11303800Y-11939000D01*
X11353800Y-11989000D01*
X11607800Y-10465000D02*
X11657800Y-10415000D01*
X11607800Y-10365000D01*
X11557800Y-10415000D01*
X11607800Y-10465000D01*
X11607800Y-11989000D02*
X11657800Y-11939000D01*
X11607800Y-11889000D01*
X11557800Y-11939000D01*
X11607800Y-11989000D01*
X11861800Y-10465000D02*
X11911800Y-10415000D01*
X11861800Y-10365000D01*
X11811800Y-10415000D01*
X11861800Y-10465000D01*
X11861800Y-11989000D02*
X11911800Y-11939000D01*
X11861800Y-11889000D01*
X11811800Y-11939000D01*
X11861800Y-11989000D01*
X12115800Y-10465000D02*
X12165800Y-10415000D01*
X12115800Y-10365000D01*
X12065800Y-10415000D01*
X12115800Y-10465000D01*
X12115800Y-11989000D02*
X12165800Y-11939000D01*
X12115800Y-11889000D01*
X12065800Y-11939000D01*
X12115800Y-11989000D01*
X12369800Y-10465000D02*
X12419800Y-10415000D01*
X12369800Y-10365000D01*
X12319800Y-10415000D01*
X12369800Y-10465000D01*
X12369800Y-11989000D02*
X12419800Y-11939000D01*
X12369800Y-11889000D01*
X12319800Y-11939000D01*
X12369800Y-11989000D01*
X12598400Y-9600400D02*
X12648400Y-9550400D01*
X12598400Y-9500400D01*
X12548400Y-9550400D01*
X12598400Y-9600400D01*
X12598400Y-9854400D02*
X12648400Y-9804400D01*
X12598400Y-9754400D01*
X12548400Y-9804400D01*
X12598400Y-9854400D01*
D16*
X12238550Y-7939100D02*
X12368550Y-8069100D01*
X12368550Y-7939100D02*
X12238550Y-8069100D01*
X12368550Y-8004100D02*
G75*
G03*
X12368550Y-8004100I-65000J0D01*
G01*
X12238550Y-8640100D02*
X12368550Y-8770100D01*
X12368550Y-8640100D02*
X12238550Y-8770100D01*
X12368550Y-8705100D02*
G75*
G03*
X12368550Y-8705100I-65000J0D01*
G01*
D17*
X8522200Y-6143200D02*
X8672200Y-6293200D01*
X8672200Y-6143200D02*
X8522200Y-6293200D01*
X8597200Y-6143200D02*
X8597200Y-6293200D01*
X8522200Y-6218200D02*
X8672200Y-6218200D01*
X8772200Y-5193200D02*
X8922200Y-5343200D01*
X8922200Y-5193200D02*
X8772200Y-5343200D01*
X8847200Y-5193200D02*
X8847200Y-5343200D01*
X8772200Y-5268200D02*
X8922200Y-5268200D01*
X8772200Y-6393200D02*
X8922200Y-6543200D01*
X8922200Y-6393200D02*
X8772200Y-6543200D01*
X8847200Y-6393200D02*
X8847200Y-6543200D01*
X8772200Y-6468200D02*
X8922200Y-6468200D01*
X9272200Y-6143200D02*
X9422200Y-6293200D01*
X9422200Y-6143200D02*
X9272200Y-6293200D01*
X9347200Y-6143200D02*
X9347200Y-6293200D01*
X9272200Y-6218200D02*
X9422200Y-6218200D01*
X9772200Y-5193200D02*
X9922200Y-5343200D01*
X9922200Y-5193200D02*
X9772200Y-5343200D01*
X9847200Y-5193200D02*
X9847200Y-5343200D01*
X9772200Y-5268200D02*
X9922200Y-5268200D01*
X9772200Y-6393200D02*
X9922200Y-6543200D01*
X9922200Y-6393200D02*
X9772200Y-6543200D01*
X9847200Y-6393200D02*
X9847200Y-6543200D01*
X9772200Y-6468200D02*
X9922200Y-6468200D01*
X10022200Y-6143200D02*
X10172200Y-6293200D01*
X10172200Y-6143200D02*
X10022200Y-6293200D01*
X10097200Y-6143200D02*
X10097200Y-6293200D01*
X10022200Y-6218200D02*
X10172200Y-6218200D01*
X10808200Y-6143200D02*
X10958200Y-6293200D01*
X10958200Y-6143200D02*
X10808200Y-6293200D01*
X10883200Y-6143200D02*
X10883200Y-6293200D01*
X10808200Y-6218200D02*
X10958200Y-6218200D01*
X11058200Y-5193200D02*
X11208200Y-5343200D01*
X11208200Y-5193200D02*
X11058200Y-5343200D01*
X11133200Y-5193200D02*
X11133200Y-5343200D01*
X11058200Y-5268200D02*
X11208200Y-5268200D01*
X11058200Y-6393200D02*
X11208200Y-6543200D01*
X11208200Y-6393200D02*
X11058200Y-6543200D01*
X11133200Y-6393200D02*
X11133200Y-6543200D01*
X11058200Y-6468200D02*
X11208200Y-6468200D01*
X11558200Y-6143200D02*
X11708200Y-6293200D01*
X11708200Y-6143200D02*
X11558200Y-6293200D01*
X11633200Y-6143200D02*
X11633200Y-6293200D01*
X11558200Y-6218200D02*
X11708200Y-6218200D01*
X12058200Y-5193200D02*
X12208200Y-5343200D01*
X12208200Y-5193200D02*
X12058200Y-5343200D01*
X12133200Y-5193200D02*
X12133200Y-5343200D01*
X12058200Y-5268200D02*
X12208200Y-5268200D01*
X12058200Y-6393200D02*
X12208200Y-6543200D01*
X12208200Y-6393200D02*
X12058200Y-6543200D01*
X12133200Y-6393200D02*
X12133200Y-6543200D01*
X12058200Y-6468200D02*
X12208200Y-6468200D01*
X12308200Y-6143200D02*
X12458200Y-6293200D01*
X12458200Y-6143200D02*
X12308200Y-6293200D01*
X12383200Y-6143200D02*
X12383200Y-6293200D01*
X12308200Y-6218200D02*
X12458200Y-6218200D01*
D18*
X8323600Y-7155200D02*
X8643600Y-7475200D01*
X8643600Y-7155200D02*
X8323600Y-7475200D01*
X8596738Y-7428338D02*
X8596738Y-7202062D01*
X8370462Y-7202062D01*
X8370462Y-7428338D01*
X8596738Y-7428338D01*
X12311400Y-7155200D02*
X12631400Y-7475200D01*
X12631400Y-7155200D02*
X12311400Y-7475200D01*
X12584538Y-7428338D02*
X12584538Y-7202062D01*
X12358262Y-7202062D01*
X12358262Y-7428338D01*
X12584538Y-7428338D01*
D11*
X8355219Y-13269476D02*
X8355219Y-13069476D01*
X8402838Y-13069476D01*
X8431410Y-13079000D01*
X8450457Y-13098048D01*
X8459981Y-13117095D01*
X8469505Y-13155190D01*
X8469505Y-13183762D01*
X8459981Y-13221857D01*
X8450457Y-13240905D01*
X8431410Y-13259952D01*
X8402838Y-13269476D01*
X8355219Y-13269476D01*
X8555219Y-13269476D02*
X8555219Y-13136143D01*
X8555219Y-13174238D02*
X8564743Y-13155190D01*
X8574267Y-13145667D01*
X8593314Y-13136143D01*
X8612362Y-13136143D01*
X8679029Y-13269476D02*
X8679029Y-13136143D01*
X8679029Y-13069476D02*
X8669505Y-13079000D01*
X8679029Y-13088524D01*
X8688552Y-13079000D01*
X8679029Y-13069476D01*
X8679029Y-13088524D01*
X8802838Y-13269476D02*
X8783790Y-13259952D01*
X8774267Y-13240905D01*
X8774267Y-13069476D01*
X8907600Y-13269476D02*
X8888552Y-13259952D01*
X8879029Y-13240905D01*
X8879029Y-13069476D01*
X9136171Y-13269476D02*
X9136171Y-13069476D01*
X9202838Y-13212333D01*
X9269505Y-13069476D01*
X9269505Y-13269476D01*
X9450457Y-13269476D02*
X9450457Y-13164714D01*
X9440933Y-13145667D01*
X9421886Y-13136143D01*
X9383790Y-13136143D01*
X9364743Y-13145667D01*
X9450457Y-13259952D02*
X9431410Y-13269476D01*
X9383790Y-13269476D01*
X9364743Y-13259952D01*
X9355219Y-13240905D01*
X9355219Y-13221857D01*
X9364743Y-13202809D01*
X9383790Y-13193286D01*
X9431410Y-13193286D01*
X9450457Y-13183762D01*
X9545695Y-13136143D02*
X9545695Y-13336143D01*
X9545695Y-13145667D02*
X9564743Y-13136143D01*
X9602838Y-13136143D01*
X9621886Y-13145667D01*
X9631410Y-13155190D01*
X9640933Y-13174238D01*
X9640933Y-13231381D01*
X9631410Y-13250428D01*
X9621886Y-13259952D01*
X9602838Y-13269476D01*
X9564743Y-13269476D01*
X9545695Y-13259952D01*
X9726648Y-13250428D02*
X9736171Y-13259952D01*
X9726648Y-13269476D01*
X9717124Y-13259952D01*
X9726648Y-13250428D01*
X9726648Y-13269476D01*
X9726648Y-13145667D02*
X9736171Y-13155190D01*
X9726648Y-13164714D01*
X9717124Y-13155190D01*
X9726648Y-13145667D01*
X9726648Y-13164714D01*
D12*
X8057600Y-13579000D02*
X8097600Y-13619000D01*
X8097600Y-13579000D02*
X8057600Y-13619000D01*
D11*
X8393314Y-13489476D02*
X8412362Y-13489476D01*
X8431410Y-13499000D01*
X8440933Y-13508524D01*
X8450457Y-13527571D01*
X8459981Y-13565667D01*
X8459981Y-13613286D01*
X8450457Y-13651381D01*
X8440933Y-13670428D01*
X8431410Y-13679952D01*
X8412362Y-13689476D01*
X8393314Y-13689476D01*
X8374267Y-13679952D01*
X8364743Y-13670428D01*
X8355219Y-13651381D01*
X8345695Y-13613286D01*
X8345695Y-13565667D01*
X8355219Y-13527571D01*
X8364743Y-13508524D01*
X8374267Y-13499000D01*
X8393314Y-13489476D01*
X8545695Y-13670428D02*
X8555219Y-13679952D01*
X8545695Y-13689476D01*
X8536171Y-13679952D01*
X8545695Y-13670428D01*
X8545695Y-13689476D01*
X8726648Y-13556143D02*
X8726648Y-13689476D01*
X8679029Y-13479952D02*
X8631410Y-13622809D01*
X8755219Y-13622809D01*
X8869505Y-13489476D02*
X8888552Y-13489476D01*
X8907600Y-13499000D01*
X8917124Y-13508524D01*
X8926648Y-13527571D01*
X8936171Y-13565667D01*
X8936171Y-13613286D01*
X8926648Y-13651381D01*
X8917124Y-13670428D01*
X8907600Y-13679952D01*
X8888552Y-13689476D01*
X8869505Y-13689476D01*
X8850457Y-13679952D01*
X8840933Y-13670428D01*
X8831410Y-13651381D01*
X8821886Y-13613286D01*
X8821886Y-13565667D01*
X8831410Y-13527571D01*
X8840933Y-13508524D01*
X8850457Y-13499000D01*
X8869505Y-13489476D01*
X9059981Y-13489476D02*
X9079029Y-13489476D01*
X9098076Y-13499000D01*
X9107600Y-13508524D01*
X9117124Y-13527571D01*
X9126648Y-13565667D01*
X9126648Y-13613286D01*
X9117124Y-13651381D01*
X9107600Y-13670428D01*
X9098076Y-13679952D01*
X9079029Y-13689476D01*
X9059981Y-13689476D01*
X9040933Y-13679952D01*
X9031410Y-13670428D01*
X9021886Y-13651381D01*
X9012362Y-13613286D01*
X9012362Y-13565667D01*
X9021886Y-13527571D01*
X9031410Y-13508524D01*
X9040933Y-13499000D01*
X9059981Y-13489476D01*
X9212362Y-13689476D02*
X9212362Y-13556143D01*
X9212362Y-13575190D02*
X9221886Y-13565667D01*
X9240933Y-13556143D01*
X9269505Y-13556143D01*
X9288552Y-13565667D01*
X9298076Y-13584714D01*
X9298076Y-13689476D01*
X9298076Y-13584714D02*
X9307600Y-13565667D01*
X9326648Y-13556143D01*
X9355219Y-13556143D01*
X9374267Y-13565667D01*
X9383790Y-13584714D01*
X9383790Y-13689476D01*
X9479029Y-13689476D02*
X9479029Y-13556143D01*
X9479029Y-13575190D02*
X9488552Y-13565667D01*
X9507600Y-13556143D01*
X9536171Y-13556143D01*
X9555219Y-13565667D01*
X9564743Y-13584714D01*
X9564743Y-13689476D01*
X9564743Y-13584714D02*
X9574267Y-13565667D01*
X9593314Y-13556143D01*
X9621886Y-13556143D01*
X9640933Y-13565667D01*
X9650457Y-13584714D01*
X9650457Y-13689476D01*
X10040933Y-13479952D02*
X9869505Y-13737095D01*
X10298076Y-13489476D02*
X10317124Y-13489476D01*
X10336171Y-13499000D01*
X10345695Y-13508524D01*
X10355219Y-13527571D01*
X10364743Y-13565667D01*
X10364743Y-13613286D01*
X10355219Y-13651381D01*
X10345695Y-13670428D01*
X10336171Y-13679952D01*
X10317124Y-13689476D01*
X10298076Y-13689476D01*
X10279029Y-13679952D01*
X10269505Y-13670428D01*
X10259981Y-13651381D01*
X10250457Y-13613286D01*
X10250457Y-13565667D01*
X10259981Y-13527571D01*
X10269505Y-13508524D01*
X10279029Y-13499000D01*
X10298076Y-13489476D01*
X10450457Y-13670428D02*
X10459981Y-13679952D01*
X10450457Y-13689476D01*
X10440933Y-13679952D01*
X10450457Y-13670428D01*
X10450457Y-13689476D01*
X10583790Y-13489476D02*
X10602838Y-13489476D01*
X10621886Y-13499000D01*
X10631410Y-13508524D01*
X10640933Y-13527571D01*
X10650457Y-13565667D01*
X10650457Y-13613286D01*
X10640933Y-13651381D01*
X10631410Y-13670428D01*
X10621886Y-13679952D01*
X10602838Y-13689476D01*
X10583790Y-13689476D01*
X10564743Y-13679952D01*
X10555219Y-13670428D01*
X10545695Y-13651381D01*
X10536171Y-13613286D01*
X10536171Y-13565667D01*
X10545695Y-13527571D01*
X10555219Y-13508524D01*
X10564743Y-13499000D01*
X10583790Y-13489476D01*
X10840933Y-13689476D02*
X10726648Y-13689476D01*
X10783790Y-13689476D02*
X10783790Y-13489476D01*
X10764743Y-13518048D01*
X10745695Y-13537095D01*
X10726648Y-13546619D01*
X11021886Y-13489476D02*
X10926648Y-13489476D01*
X10917124Y-13584714D01*
X10926648Y-13575190D01*
X10945695Y-13565667D01*
X10993314Y-13565667D01*
X11012362Y-13575190D01*
X11021886Y-13584714D01*
X11031410Y-13603762D01*
X11031410Y-13651381D01*
X11021886Y-13670428D01*
X11012362Y-13679952D01*
X10993314Y-13689476D01*
X10945695Y-13689476D01*
X10926648Y-13679952D01*
X10917124Y-13670428D01*
X11098076Y-13489476D02*
X11231409Y-13489476D01*
X11145695Y-13689476D01*
X11298076Y-13489476D02*
X11298076Y-13527571D01*
X11374267Y-13489476D02*
X11374267Y-13527571D01*
X11669505Y-13765667D02*
X11659981Y-13756143D01*
X11640933Y-13727571D01*
X11631409Y-13708524D01*
X11621886Y-13679952D01*
X11612362Y-13632333D01*
X11612362Y-13594238D01*
X11621886Y-13546619D01*
X11631409Y-13518048D01*
X11640933Y-13499000D01*
X11659981Y-13470428D01*
X11669505Y-13460905D01*
X11726648Y-13489476D02*
X11850457Y-13489476D01*
X11783790Y-13565667D01*
X11812362Y-13565667D01*
X11831409Y-13575190D01*
X11840933Y-13584714D01*
X11850457Y-13603762D01*
X11850457Y-13651381D01*
X11840933Y-13670428D01*
X11831409Y-13679952D01*
X11812362Y-13689476D01*
X11755219Y-13689476D01*
X11736171Y-13679952D01*
X11726648Y-13670428D01*
X12088552Y-13689476D02*
X12088552Y-13489476D01*
X12174267Y-13689476D02*
X12174267Y-13584714D01*
X12164743Y-13565667D01*
X12145695Y-13556143D01*
X12117124Y-13556143D01*
X12098076Y-13565667D01*
X12088552Y-13575190D01*
X12298076Y-13689476D02*
X12279028Y-13679952D01*
X12269505Y-13670428D01*
X12259981Y-13651381D01*
X12259981Y-13594238D01*
X12269505Y-13575190D01*
X12279028Y-13565667D01*
X12298076Y-13556143D01*
X12326648Y-13556143D01*
X12345695Y-13565667D01*
X12355219Y-13575190D01*
X12364743Y-13594238D01*
X12364743Y-13651381D01*
X12355219Y-13670428D01*
X12345695Y-13679952D01*
X12326648Y-13689476D01*
X12298076Y-13689476D01*
X12479028Y-13689476D02*
X12459981Y-13679952D01*
X12450457Y-13660905D01*
X12450457Y-13489476D01*
X12631409Y-13679952D02*
X12612362Y-13689476D01*
X12574267Y-13689476D01*
X12555219Y-13679952D01*
X12545695Y-13660905D01*
X12545695Y-13584714D01*
X12555219Y-13565667D01*
X12574267Y-13556143D01*
X12612362Y-13556143D01*
X12631409Y-13565667D01*
X12640933Y-13584714D01*
X12640933Y-13603762D01*
X12545695Y-13622809D01*
X12717124Y-13679952D02*
X12736171Y-13689476D01*
X12774267Y-13689476D01*
X12793314Y-13679952D01*
X12802838Y-13660905D01*
X12802838Y-13651381D01*
X12793314Y-13632333D01*
X12774267Y-13622809D01*
X12745695Y-13622809D01*
X12726648Y-13613286D01*
X12717124Y-13594238D01*
X12717124Y-13584714D01*
X12726648Y-13565667D01*
X12745695Y-13556143D01*
X12774267Y-13556143D01*
X12793314Y-13565667D01*
X12869505Y-13765667D02*
X12879028Y-13756143D01*
X12898076Y-13727571D01*
X12907600Y-13708524D01*
X12917124Y-13679952D01*
X12926648Y-13632333D01*
X12926648Y-13594238D01*
X12917124Y-13546619D01*
X12907600Y-13518048D01*
X12898076Y-13499000D01*
X12879028Y-13470428D01*
X12869505Y-13460905D01*
D13*
X8097600Y-13863000D02*
G75*
G03*
X8097600Y-13863000I-40000J0D01*
G01*
D11*
X8393314Y-13753476D02*
X8412362Y-13753476D01*
X8431410Y-13763000D01*
X8440933Y-13772524D01*
X8450457Y-13791571D01*
X8459981Y-13829667D01*
X8459981Y-13877286D01*
X8450457Y-13915381D01*
X8440933Y-13934428D01*
X8431410Y-13943952D01*
X8412362Y-13953476D01*
X8393314Y-13953476D01*
X8374267Y-13943952D01*
X8364743Y-13934428D01*
X8355219Y-13915381D01*
X8345695Y-13877286D01*
X8345695Y-13829667D01*
X8355219Y-13791571D01*
X8364743Y-13772524D01*
X8374267Y-13763000D01*
X8393314Y-13753476D01*
X8545695Y-13934428D02*
X8555219Y-13943952D01*
X8545695Y-13953476D01*
X8536171Y-13943952D01*
X8545695Y-13934428D01*
X8545695Y-13953476D01*
X8669505Y-13839190D02*
X8650457Y-13829667D01*
X8640933Y-13820143D01*
X8631410Y-13801095D01*
X8631410Y-13791571D01*
X8640933Y-13772524D01*
X8650457Y-13763000D01*
X8669505Y-13753476D01*
X8707600Y-13753476D01*
X8726648Y-13763000D01*
X8736171Y-13772524D01*
X8745695Y-13791571D01*
X8745695Y-13801095D01*
X8736171Y-13820143D01*
X8726648Y-13829667D01*
X8707600Y-13839190D01*
X8669505Y-13839190D01*
X8650457Y-13848714D01*
X8640933Y-13858238D01*
X8631410Y-13877286D01*
X8631410Y-13915381D01*
X8640933Y-13934428D01*
X8650457Y-13943952D01*
X8669505Y-13953476D01*
X8707600Y-13953476D01*
X8726648Y-13943952D01*
X8736171Y-13934428D01*
X8745695Y-13915381D01*
X8745695Y-13877286D01*
X8736171Y-13858238D01*
X8726648Y-13848714D01*
X8707600Y-13839190D01*
X8869505Y-13753476D02*
X8888552Y-13753476D01*
X8907600Y-13763000D01*
X8917124Y-13772524D01*
X8926648Y-13791571D01*
X8936171Y-13829667D01*
X8936171Y-13877286D01*
X8926648Y-13915381D01*
X8917124Y-13934428D01*
X8907600Y-13943952D01*
X8888552Y-13953476D01*
X8869505Y-13953476D01*
X8850457Y-13943952D01*
X8840933Y-13934428D01*
X8831410Y-13915381D01*
X8821886Y-13877286D01*
X8821886Y-13829667D01*
X8831410Y-13791571D01*
X8840933Y-13772524D01*
X8850457Y-13763000D01*
X8869505Y-13753476D01*
X9059981Y-13753476D02*
X9079029Y-13753476D01*
X9098076Y-13763000D01*
X9107600Y-13772524D01*
X9117124Y-13791571D01*
X9126648Y-13829667D01*
X9126648Y-13877286D01*
X9117124Y-13915381D01*
X9107600Y-13934428D01*
X9098076Y-13943952D01*
X9079029Y-13953476D01*
X9059981Y-13953476D01*
X9040933Y-13943952D01*
X9031410Y-13934428D01*
X9021886Y-13915381D01*
X9012362Y-13877286D01*
X9012362Y-13829667D01*
X9021886Y-13791571D01*
X9031410Y-13772524D01*
X9040933Y-13763000D01*
X9059981Y-13753476D01*
X9212362Y-13953476D02*
X9212362Y-13820143D01*
X9212362Y-13839190D02*
X9221886Y-13829667D01*
X9240933Y-13820143D01*
X9269505Y-13820143D01*
X9288552Y-13829667D01*
X9298076Y-13848714D01*
X9298076Y-13953476D01*
X9298076Y-13848714D02*
X9307600Y-13829667D01*
X9326648Y-13820143D01*
X9355219Y-13820143D01*
X9374267Y-13829667D01*
X9383790Y-13848714D01*
X9383790Y-13953476D01*
X9479029Y-13953476D02*
X9479029Y-13820143D01*
X9479029Y-13839190D02*
X9488552Y-13829667D01*
X9507600Y-13820143D01*
X9536171Y-13820143D01*
X9555219Y-13829667D01*
X9564743Y-13848714D01*
X9564743Y-13953476D01*
X9564743Y-13848714D02*
X9574267Y-13829667D01*
X9593314Y-13820143D01*
X9621886Y-13820143D01*
X9640933Y-13829667D01*
X9650457Y-13848714D01*
X9650457Y-13953476D01*
X10040933Y-13743952D02*
X9869505Y-14001095D01*
X10298076Y-13753476D02*
X10317124Y-13753476D01*
X10336171Y-13763000D01*
X10345695Y-13772524D01*
X10355219Y-13791571D01*
X10364743Y-13829667D01*
X10364743Y-13877286D01*
X10355219Y-13915381D01*
X10345695Y-13934428D01*
X10336171Y-13943952D01*
X10317124Y-13953476D01*
X10298076Y-13953476D01*
X10279029Y-13943952D01*
X10269505Y-13934428D01*
X10259981Y-13915381D01*
X10250457Y-13877286D01*
X10250457Y-13829667D01*
X10259981Y-13791571D01*
X10269505Y-13772524D01*
X10279029Y-13763000D01*
X10298076Y-13753476D01*
X10450457Y-13934428D02*
X10459981Y-13943952D01*
X10450457Y-13953476D01*
X10440933Y-13943952D01*
X10450457Y-13934428D01*
X10450457Y-13953476D01*
X10583790Y-13753476D02*
X10602838Y-13753476D01*
X10621886Y-13763000D01*
X10631410Y-13772524D01*
X10640933Y-13791571D01*
X10650457Y-13829667D01*
X10650457Y-13877286D01*
X10640933Y-13915381D01*
X10631410Y-13934428D01*
X10621886Y-13943952D01*
X10602838Y-13953476D01*
X10583790Y-13953476D01*
X10564743Y-13943952D01*
X10555219Y-13934428D01*
X10545695Y-13915381D01*
X10536171Y-13877286D01*
X10536171Y-13829667D01*
X10545695Y-13791571D01*
X10555219Y-13772524D01*
X10564743Y-13763000D01*
X10583790Y-13753476D01*
X10717124Y-13753476D02*
X10840933Y-13753476D01*
X10774267Y-13829667D01*
X10802838Y-13829667D01*
X10821886Y-13839190D01*
X10831410Y-13848714D01*
X10840933Y-13867762D01*
X10840933Y-13915381D01*
X10831410Y-13934428D01*
X10821886Y-13943952D01*
X10802838Y-13953476D01*
X10745695Y-13953476D01*
X10726648Y-13943952D01*
X10717124Y-13934428D01*
X11031410Y-13953476D02*
X10917124Y-13953476D01*
X10974267Y-13953476D02*
X10974267Y-13753476D01*
X10955219Y-13782048D01*
X10936171Y-13801095D01*
X10917124Y-13810619D01*
X11212362Y-13753476D02*
X11117124Y-13753476D01*
X11107600Y-13848714D01*
X11117124Y-13839190D01*
X11136171Y-13829667D01*
X11183790Y-13829667D01*
X11202838Y-13839190D01*
X11212362Y-13848714D01*
X11221886Y-13867762D01*
X11221886Y-13915381D01*
X11212362Y-13934428D01*
X11202838Y-13943952D01*
X11183790Y-13953476D01*
X11136171Y-13953476D01*
X11117124Y-13943952D01*
X11107600Y-13934428D01*
X11298076Y-13753476D02*
X11298076Y-13791571D01*
X11374267Y-13753476D02*
X11374267Y-13791571D01*
X11669505Y-14029667D02*
X11659981Y-14020143D01*
X11640933Y-13991571D01*
X11631409Y-13972524D01*
X11621886Y-13943952D01*
X11612362Y-13896333D01*
X11612362Y-13858238D01*
X11621886Y-13810619D01*
X11631409Y-13782048D01*
X11640933Y-13763000D01*
X11659981Y-13734428D01*
X11669505Y-13724905D01*
X11850457Y-13953476D02*
X11736171Y-13953476D01*
X11793314Y-13953476D02*
X11793314Y-13753476D01*
X11774267Y-13782048D01*
X11755219Y-13801095D01*
X11736171Y-13810619D01*
X12021886Y-13753476D02*
X11983790Y-13753476D01*
X11964743Y-13763000D01*
X11955219Y-13772524D01*
X11936171Y-13801095D01*
X11926648Y-13839190D01*
X11926648Y-13915381D01*
X11936171Y-13934428D01*
X11945695Y-13943952D01*
X11964743Y-13953476D01*
X12002838Y-13953476D01*
X12021886Y-13943952D01*
X12031409Y-13934428D01*
X12040933Y-13915381D01*
X12040933Y-13867762D01*
X12031409Y-13848714D01*
X12021886Y-13839190D01*
X12002838Y-13829667D01*
X11964743Y-13829667D01*
X11945695Y-13839190D01*
X11936171Y-13848714D01*
X11926648Y-13867762D01*
X12279028Y-13953476D02*
X12279028Y-13753476D01*
X12364743Y-13953476D02*
X12364743Y-13848714D01*
X12355219Y-13829667D01*
X12336171Y-13820143D01*
X12307600Y-13820143D01*
X12288552Y-13829667D01*
X12279028Y-13839190D01*
X12488552Y-13953476D02*
X12469505Y-13943952D01*
X12459981Y-13934428D01*
X12450457Y-13915381D01*
X12450457Y-13858238D01*
X12459981Y-13839190D01*
X12469505Y-13829667D01*
X12488552Y-13820143D01*
X12517124Y-13820143D01*
X12536171Y-13829667D01*
X12545695Y-13839190D01*
X12555219Y-13858238D01*
X12555219Y-13915381D01*
X12545695Y-13934428D01*
X12536171Y-13943952D01*
X12517124Y-13953476D01*
X12488552Y-13953476D01*
X12669505Y-13953476D02*
X12650457Y-13943952D01*
X12640933Y-13924905D01*
X12640933Y-13753476D01*
X12821886Y-13943952D02*
X12802838Y-13953476D01*
X12764743Y-13953476D01*
X12745695Y-13943952D01*
X12736171Y-13924905D01*
X12736171Y-13848714D01*
X12745695Y-13829667D01*
X12764743Y-13820143D01*
X12802838Y-13820143D01*
X12821886Y-13829667D01*
X12831409Y-13848714D01*
X12831409Y-13867762D01*
X12736171Y-13886809D01*
X12907600Y-13943952D02*
X12926648Y-13953476D01*
X12964743Y-13953476D01*
X12983790Y-13943952D01*
X12993314Y-13924905D01*
X12993314Y-13915381D01*
X12983790Y-13896333D01*
X12964743Y-13886809D01*
X12936171Y-13886809D01*
X12917124Y-13877286D01*
X12907600Y-13858238D01*
X12907600Y-13848714D01*
X12917124Y-13829667D01*
X12936171Y-13820143D01*
X12964743Y-13820143D01*
X12983790Y-13829667D01*
X13059981Y-14029667D02*
X13069505Y-14020143D01*
X13088552Y-13991571D01*
X13098076Y-13972524D01*
X13107600Y-13943952D01*
X13117124Y-13896333D01*
X13117124Y-13858238D01*
X13107600Y-13810619D01*
X13098076Y-13782048D01*
X13088552Y-13763000D01*
X13069505Y-13734428D01*
X13059981Y-13724905D01*
D14*
X8052600Y-14082000D02*
X8052600Y-14172000D01*
X8007600Y-14127000D02*
X8097600Y-14127000D01*
D11*
X8393314Y-14017476D02*
X8412362Y-14017476D01*
X8431410Y-14027000D01*
X8440933Y-14036524D01*
X8450457Y-14055571D01*
X8459981Y-14093667D01*
X8459981Y-14141286D01*
X8450457Y-14179381D01*
X8440933Y-14198428D01*
X8431410Y-14207952D01*
X8412362Y-14217476D01*
X8393314Y-14217476D01*
X8374267Y-14207952D01*
X8364743Y-14198428D01*
X8355219Y-14179381D01*
X8345695Y-14141286D01*
X8345695Y-14093667D01*
X8355219Y-14055571D01*
X8364743Y-14036524D01*
X8374267Y-14027000D01*
X8393314Y-14017476D01*
X8545695Y-14198428D02*
X8555219Y-14207952D01*
X8545695Y-14217476D01*
X8536171Y-14207952D01*
X8545695Y-14198428D01*
X8545695Y-14217476D01*
X8650457Y-14217476D02*
X8688552Y-14217476D01*
X8707600Y-14207952D01*
X8717124Y-14198428D01*
X8736171Y-14169857D01*
X8745695Y-14131762D01*
X8745695Y-14055571D01*
X8736171Y-14036524D01*
X8726648Y-14027000D01*
X8707600Y-14017476D01*
X8669505Y-14017476D01*
X8650457Y-14027000D01*
X8640933Y-14036524D01*
X8631410Y-14055571D01*
X8631410Y-14103190D01*
X8640933Y-14122238D01*
X8650457Y-14131762D01*
X8669505Y-14141286D01*
X8707600Y-14141286D01*
X8726648Y-14131762D01*
X8736171Y-14122238D01*
X8745695Y-14103190D01*
X8869505Y-14017476D02*
X8888552Y-14017476D01*
X8907600Y-14027000D01*
X8917124Y-14036524D01*
X8926648Y-14055571D01*
X8936171Y-14093667D01*
X8936171Y-14141286D01*
X8926648Y-14179381D01*
X8917124Y-14198428D01*
X8907600Y-14207952D01*
X8888552Y-14217476D01*
X8869505Y-14217476D01*
X8850457Y-14207952D01*
X8840933Y-14198428D01*
X8831410Y-14179381D01*
X8821886Y-14141286D01*
X8821886Y-14093667D01*
X8831410Y-14055571D01*
X8840933Y-14036524D01*
X8850457Y-14027000D01*
X8869505Y-14017476D01*
X9059981Y-14017476D02*
X9079029Y-14017476D01*
X9098076Y-14027000D01*
X9107600Y-14036524D01*
X9117124Y-14055571D01*
X9126648Y-14093667D01*
X9126648Y-14141286D01*
X9117124Y-14179381D01*
X9107600Y-14198428D01*
X9098076Y-14207952D01*
X9079029Y-14217476D01*
X9059981Y-14217476D01*
X9040933Y-14207952D01*
X9031410Y-14198428D01*
X9021886Y-14179381D01*
X9012362Y-14141286D01*
X9012362Y-14093667D01*
X9021886Y-14055571D01*
X9031410Y-14036524D01*
X9040933Y-14027000D01*
X9059981Y-14017476D01*
X9212362Y-14217476D02*
X9212362Y-14084143D01*
X9212362Y-14103190D02*
X9221886Y-14093667D01*
X9240933Y-14084143D01*
X9269505Y-14084143D01*
X9288552Y-14093667D01*
X9298076Y-14112714D01*
X9298076Y-14217476D01*
X9298076Y-14112714D02*
X9307600Y-14093667D01*
X9326648Y-14084143D01*
X9355219Y-14084143D01*
X9374267Y-14093667D01*
X9383790Y-14112714D01*
X9383790Y-14217476D01*
X9479029Y-14217476D02*
X9479029Y-14084143D01*
X9479029Y-14103190D02*
X9488552Y-14093667D01*
X9507600Y-14084143D01*
X9536171Y-14084143D01*
X9555219Y-14093667D01*
X9564743Y-14112714D01*
X9564743Y-14217476D01*
X9564743Y-14112714D02*
X9574267Y-14093667D01*
X9593314Y-14084143D01*
X9621886Y-14084143D01*
X9640933Y-14093667D01*
X9650457Y-14112714D01*
X9650457Y-14217476D01*
X10040933Y-14007952D02*
X9869505Y-14265095D01*
X10298076Y-14017476D02*
X10317124Y-14017476D01*
X10336171Y-14027000D01*
X10345695Y-14036524D01*
X10355219Y-14055571D01*
X10364743Y-14093667D01*
X10364743Y-14141286D01*
X10355219Y-14179381D01*
X10345695Y-14198428D01*
X10336171Y-14207952D01*
X10317124Y-14217476D01*
X10298076Y-14217476D01*
X10279029Y-14207952D01*
X10269505Y-14198428D01*
X10259981Y-14179381D01*
X10250457Y-14141286D01*
X10250457Y-14093667D01*
X10259981Y-14055571D01*
X10269505Y-14036524D01*
X10279029Y-14027000D01*
X10298076Y-14017476D01*
X10450457Y-14198428D02*
X10459981Y-14207952D01*
X10450457Y-14217476D01*
X10440933Y-14207952D01*
X10450457Y-14198428D01*
X10450457Y-14217476D01*
X10583790Y-14017476D02*
X10602838Y-14017476D01*
X10621886Y-14027000D01*
X10631410Y-14036524D01*
X10640933Y-14055571D01*
X10650457Y-14093667D01*
X10650457Y-14141286D01*
X10640933Y-14179381D01*
X10631410Y-14198428D01*
X10621886Y-14207952D01*
X10602838Y-14217476D01*
X10583790Y-14217476D01*
X10564743Y-14207952D01*
X10555219Y-14198428D01*
X10545695Y-14179381D01*
X10536171Y-14141286D01*
X10536171Y-14093667D01*
X10545695Y-14055571D01*
X10555219Y-14036524D01*
X10564743Y-14027000D01*
X10583790Y-14017476D01*
X10717124Y-14017476D02*
X10840933Y-14017476D01*
X10774267Y-14093667D01*
X10802838Y-14093667D01*
X10821886Y-14103190D01*
X10831410Y-14112714D01*
X10840933Y-14131762D01*
X10840933Y-14179381D01*
X10831410Y-14198428D01*
X10821886Y-14207952D01*
X10802838Y-14217476D01*
X10745695Y-14217476D01*
X10726648Y-14207952D01*
X10717124Y-14198428D01*
X11021886Y-14017476D02*
X10926648Y-14017476D01*
X10917124Y-14112714D01*
X10926648Y-14103190D01*
X10945695Y-14093667D01*
X10993314Y-14093667D01*
X11012362Y-14103190D01*
X11021886Y-14112714D01*
X11031410Y-14131762D01*
X11031410Y-14179381D01*
X11021886Y-14198428D01*
X11012362Y-14207952D01*
X10993314Y-14217476D01*
X10945695Y-14217476D01*
X10926648Y-14207952D01*
X10917124Y-14198428D01*
X11202838Y-14084143D02*
X11202838Y-14217476D01*
X11155219Y-14007952D02*
X11107600Y-14150809D01*
X11231409Y-14150809D01*
X11298076Y-14017476D02*
X11298076Y-14055571D01*
X11374267Y-14017476D02*
X11374267Y-14055571D01*
X11669505Y-14293667D02*
X11659981Y-14284143D01*
X11640933Y-14255571D01*
X11631409Y-14236524D01*
X11621886Y-14207952D01*
X11612362Y-14160333D01*
X11612362Y-14122238D01*
X11621886Y-14074619D01*
X11631409Y-14046048D01*
X11640933Y-14027000D01*
X11659981Y-13998428D01*
X11669505Y-13988905D01*
X11831409Y-14017476D02*
X11793314Y-14017476D01*
X11774267Y-14027000D01*
X11764743Y-14036524D01*
X11745695Y-14065095D01*
X11736171Y-14103190D01*
X11736171Y-14179381D01*
X11745695Y-14198428D01*
X11755219Y-14207952D01*
X11774267Y-14217476D01*
X11812362Y-14217476D01*
X11831409Y-14207952D01*
X11840933Y-14198428D01*
X11850457Y-14179381D01*
X11850457Y-14131762D01*
X11840933Y-14112714D01*
X11831409Y-14103190D01*
X11812362Y-14093667D01*
X11774267Y-14093667D01*
X11755219Y-14103190D01*
X11745695Y-14112714D01*
X11736171Y-14131762D01*
X12088552Y-14217476D02*
X12088552Y-14017476D01*
X12174267Y-14217476D02*
X12174267Y-14112714D01*
X12164743Y-14093667D01*
X12145695Y-14084143D01*
X12117124Y-14084143D01*
X12098076Y-14093667D01*
X12088552Y-14103190D01*
X12298076Y-14217476D02*
X12279028Y-14207952D01*
X12269505Y-14198428D01*
X12259981Y-14179381D01*
X12259981Y-14122238D01*
X12269505Y-14103190D01*
X12279028Y-14093667D01*
X12298076Y-14084143D01*
X12326648Y-14084143D01*
X12345695Y-14093667D01*
X12355219Y-14103190D01*
X12364743Y-14122238D01*
X12364743Y-14179381D01*
X12355219Y-14198428D01*
X12345695Y-14207952D01*
X12326648Y-14217476D01*
X12298076Y-14217476D01*
X12479028Y-14217476D02*
X12459981Y-14207952D01*
X12450457Y-14188905D01*
X12450457Y-14017476D01*
X12631409Y-14207952D02*
X12612362Y-14217476D01*
X12574267Y-14217476D01*
X12555219Y-14207952D01*
X12545695Y-14188905D01*
X12545695Y-14112714D01*
X12555219Y-14093667D01*
X12574267Y-14084143D01*
X12612362Y-14084143D01*
X12631409Y-14093667D01*
X12640933Y-14112714D01*
X12640933Y-14131762D01*
X12545695Y-14150809D01*
X12717124Y-14207952D02*
X12736171Y-14217476D01*
X12774267Y-14217476D01*
X12793314Y-14207952D01*
X12802838Y-14188905D01*
X12802838Y-14179381D01*
X12793314Y-14160333D01*
X12774267Y-14150809D01*
X12745695Y-14150809D01*
X12726648Y-14141286D01*
X12717124Y-14122238D01*
X12717124Y-14112714D01*
X12726648Y-14093667D01*
X12745695Y-14084143D01*
X12774267Y-14084143D01*
X12793314Y-14093667D01*
X12869505Y-14293667D02*
X12879028Y-14284143D01*
X12898076Y-14255571D01*
X12907600Y-14236524D01*
X12917124Y-14207952D01*
X12926648Y-14160333D01*
X12926648Y-14122238D01*
X12917124Y-14074619D01*
X12907600Y-14046048D01*
X12898076Y-14027000D01*
X12879028Y-13998428D01*
X12869505Y-13988905D01*
D15*
X8083102Y-14426002D02*
X8083102Y-14355998D01*
X8013098Y-14355998D01*
X8013098Y-14426002D01*
X8083102Y-14426002D01*
D11*
X8393314Y-14281476D02*
X8412362Y-14281476D01*
X8431410Y-14291000D01*
X8440933Y-14300524D01*
X8450457Y-14319571D01*
X8459981Y-14357667D01*
X8459981Y-14405286D01*
X8450457Y-14443381D01*
X8440933Y-14462428D01*
X8431410Y-14471952D01*
X8412362Y-14481476D01*
X8393314Y-14481476D01*
X8374267Y-14471952D01*
X8364743Y-14462428D01*
X8355219Y-14443381D01*
X8345695Y-14405286D01*
X8345695Y-14357667D01*
X8355219Y-14319571D01*
X8364743Y-14300524D01*
X8374267Y-14291000D01*
X8393314Y-14281476D01*
X8545695Y-14462428D02*
X8555219Y-14471952D01*
X8545695Y-14481476D01*
X8536171Y-14471952D01*
X8545695Y-14462428D01*
X8545695Y-14481476D01*
X8650457Y-14481476D02*
X8688552Y-14481476D01*
X8707600Y-14471952D01*
X8717124Y-14462428D01*
X8736171Y-14433857D01*
X8745695Y-14395762D01*
X8745695Y-14319571D01*
X8736171Y-14300524D01*
X8726648Y-14291000D01*
X8707600Y-14281476D01*
X8669505Y-14281476D01*
X8650457Y-14291000D01*
X8640933Y-14300524D01*
X8631410Y-14319571D01*
X8631410Y-14367190D01*
X8640933Y-14386238D01*
X8650457Y-14395762D01*
X8669505Y-14405286D01*
X8707600Y-14405286D01*
X8726648Y-14395762D01*
X8736171Y-14386238D01*
X8745695Y-14367190D01*
X8840933Y-14481476D02*
X8879029Y-14481476D01*
X8898076Y-14471952D01*
X8907600Y-14462428D01*
X8926648Y-14433857D01*
X8936171Y-14395762D01*
X8936171Y-14319571D01*
X8926648Y-14300524D01*
X8917124Y-14291000D01*
X8898076Y-14281476D01*
X8859981Y-14281476D01*
X8840933Y-14291000D01*
X8831410Y-14300524D01*
X8821886Y-14319571D01*
X8821886Y-14367190D01*
X8831410Y-14386238D01*
X8840933Y-14395762D01*
X8859981Y-14405286D01*
X8898076Y-14405286D01*
X8917124Y-14395762D01*
X8926648Y-14386238D01*
X8936171Y-14367190D01*
X9059981Y-14281476D02*
X9079029Y-14281476D01*
X9098076Y-14291000D01*
X9107600Y-14300524D01*
X9117124Y-14319571D01*
X9126648Y-14357667D01*
X9126648Y-14405286D01*
X9117124Y-14443381D01*
X9107600Y-14462428D01*
X9098076Y-14471952D01*
X9079029Y-14481476D01*
X9059981Y-14481476D01*
X9040933Y-14471952D01*
X9031410Y-14462428D01*
X9021886Y-14443381D01*
X9012362Y-14405286D01*
X9012362Y-14357667D01*
X9021886Y-14319571D01*
X9031410Y-14300524D01*
X9040933Y-14291000D01*
X9059981Y-14281476D01*
X9212362Y-14481476D02*
X9212362Y-14348143D01*
X9212362Y-14367190D02*
X9221886Y-14357667D01*
X9240933Y-14348143D01*
X9269505Y-14348143D01*
X9288552Y-14357667D01*
X9298076Y-14376714D01*
X9298076Y-14481476D01*
X9298076Y-14376714D02*
X9307600Y-14357667D01*
X9326648Y-14348143D01*
X9355219Y-14348143D01*
X9374267Y-14357667D01*
X9383790Y-14376714D01*
X9383790Y-14481476D01*
X9479029Y-14481476D02*
X9479029Y-14348143D01*
X9479029Y-14367190D02*
X9488552Y-14357667D01*
X9507600Y-14348143D01*
X9536171Y-14348143D01*
X9555219Y-14357667D01*
X9564743Y-14376714D01*
X9564743Y-14481476D01*
X9564743Y-14376714D02*
X9574267Y-14357667D01*
X9593314Y-14348143D01*
X9621886Y-14348143D01*
X9640933Y-14357667D01*
X9650457Y-14376714D01*
X9650457Y-14481476D01*
X10040933Y-14271952D02*
X9869505Y-14529095D01*
X10298076Y-14281476D02*
X10317124Y-14281476D01*
X10336171Y-14291000D01*
X10345695Y-14300524D01*
X10355219Y-14319571D01*
X10364743Y-14357667D01*
X10364743Y-14405286D01*
X10355219Y-14443381D01*
X10345695Y-14462428D01*
X10336171Y-14471952D01*
X10317124Y-14481476D01*
X10298076Y-14481476D01*
X10279029Y-14471952D01*
X10269505Y-14462428D01*
X10259981Y-14443381D01*
X10250457Y-14405286D01*
X10250457Y-14357667D01*
X10259981Y-14319571D01*
X10269505Y-14300524D01*
X10279029Y-14291000D01*
X10298076Y-14281476D01*
X10450457Y-14462428D02*
X10459981Y-14471952D01*
X10450457Y-14481476D01*
X10440933Y-14471952D01*
X10450457Y-14462428D01*
X10450457Y-14481476D01*
X10583790Y-14281476D02*
X10602838Y-14281476D01*
X10621886Y-14291000D01*
X10631410Y-14300524D01*
X10640933Y-14319571D01*
X10650457Y-14357667D01*
X10650457Y-14405286D01*
X10640933Y-14443381D01*
X10631410Y-14462428D01*
X10621886Y-14471952D01*
X10602838Y-14481476D01*
X10583790Y-14481476D01*
X10564743Y-14471952D01*
X10555219Y-14462428D01*
X10545695Y-14443381D01*
X10536171Y-14405286D01*
X10536171Y-14357667D01*
X10545695Y-14319571D01*
X10555219Y-14300524D01*
X10564743Y-14291000D01*
X10583790Y-14281476D01*
X10717124Y-14281476D02*
X10840933Y-14281476D01*
X10774267Y-14357667D01*
X10802838Y-14357667D01*
X10821886Y-14367190D01*
X10831410Y-14376714D01*
X10840933Y-14395762D01*
X10840933Y-14443381D01*
X10831410Y-14462428D01*
X10821886Y-14471952D01*
X10802838Y-14481476D01*
X10745695Y-14481476D01*
X10726648Y-14471952D01*
X10717124Y-14462428D01*
X10936171Y-14481476D02*
X10974267Y-14481476D01*
X10993314Y-14471952D01*
X11002838Y-14462428D01*
X11021886Y-14433857D01*
X11031410Y-14395762D01*
X11031410Y-14319571D01*
X11021886Y-14300524D01*
X11012362Y-14291000D01*
X10993314Y-14281476D01*
X10955219Y-14281476D01*
X10936171Y-14291000D01*
X10926648Y-14300524D01*
X10917124Y-14319571D01*
X10917124Y-14367190D01*
X10926648Y-14386238D01*
X10936171Y-14395762D01*
X10955219Y-14405286D01*
X10993314Y-14405286D01*
X11012362Y-14395762D01*
X11021886Y-14386238D01*
X11031410Y-14367190D01*
X11155219Y-14281476D02*
X11174267Y-14281476D01*
X11193314Y-14291000D01*
X11202838Y-14300524D01*
X11212362Y-14319571D01*
X11221886Y-14357667D01*
X11221886Y-14405286D01*
X11212362Y-14443381D01*
X11202838Y-14462428D01*
X11193314Y-14471952D01*
X11174267Y-14481476D01*
X11155219Y-14481476D01*
X11136171Y-14471952D01*
X11126648Y-14462428D01*
X11117124Y-14443381D01*
X11107600Y-14405286D01*
X11107600Y-14357667D01*
X11117124Y-14319571D01*
X11126648Y-14300524D01*
X11136171Y-14291000D01*
X11155219Y-14281476D01*
X11298076Y-14281476D02*
X11298076Y-14319571D01*
X11374267Y-14281476D02*
X11374267Y-14319571D01*
X11669505Y-14557667D02*
X11659981Y-14548143D01*
X11640933Y-14519571D01*
X11631409Y-14500524D01*
X11621886Y-14471952D01*
X11612362Y-14424333D01*
X11612362Y-14386238D01*
X11621886Y-14338619D01*
X11631409Y-14310048D01*
X11640933Y-14291000D01*
X11659981Y-14262428D01*
X11669505Y-14252905D01*
X11736171Y-14300524D02*
X11745695Y-14291000D01*
X11764743Y-14281476D01*
X11812362Y-14281476D01*
X11831409Y-14291000D01*
X11840933Y-14300524D01*
X11850457Y-14319571D01*
X11850457Y-14338619D01*
X11840933Y-14367190D01*
X11726648Y-14481476D01*
X11850457Y-14481476D01*
X12088552Y-14481476D02*
X12088552Y-14281476D01*
X12174267Y-14481476D02*
X12174267Y-14376714D01*
X12164743Y-14357667D01*
X12145695Y-14348143D01*
X12117124Y-14348143D01*
X12098076Y-14357667D01*
X12088552Y-14367190D01*
X12298076Y-14481476D02*
X12279028Y-14471952D01*
X12269505Y-14462428D01*
X12259981Y-14443381D01*
X12259981Y-14386238D01*
X12269505Y-14367190D01*
X12279028Y-14357667D01*
X12298076Y-14348143D01*
X12326648Y-14348143D01*
X12345695Y-14357667D01*
X12355219Y-14367190D01*
X12364743Y-14386238D01*
X12364743Y-14443381D01*
X12355219Y-14462428D01*
X12345695Y-14471952D01*
X12326648Y-14481476D01*
X12298076Y-14481476D01*
X12479028Y-14481476D02*
X12459981Y-14471952D01*
X12450457Y-14452905D01*
X12450457Y-14281476D01*
X12631409Y-14471952D02*
X12612362Y-14481476D01*
X12574267Y-14481476D01*
X12555219Y-14471952D01*
X12545695Y-14452905D01*
X12545695Y-14376714D01*
X12555219Y-14357667D01*
X12574267Y-14348143D01*
X12612362Y-14348143D01*
X12631409Y-14357667D01*
X12640933Y-14376714D01*
X12640933Y-14395762D01*
X12545695Y-14414809D01*
X12717124Y-14471952D02*
X12736171Y-14481476D01*
X12774267Y-14481476D01*
X12793314Y-14471952D01*
X12802838Y-14452905D01*
X12802838Y-14443381D01*
X12793314Y-14424333D01*
X12774267Y-14414809D01*
X12745695Y-14414809D01*
X12726648Y-14405286D01*
X12717124Y-14386238D01*
X12717124Y-14376714D01*
X12726648Y-14357667D01*
X12745695Y-14348143D01*
X12774267Y-14348143D01*
X12793314Y-14357667D01*
X12869505Y-14557667D02*
X12879028Y-14548143D01*
X12898076Y-14519571D01*
X12907600Y-14500524D01*
X12917124Y-14471952D01*
X12926648Y-14424333D01*
X12926648Y-14386238D01*
X12917124Y-14338619D01*
X12907600Y-14310048D01*
X12898076Y-14291000D01*
X12879028Y-14262428D01*
X12869505Y-14252905D01*
D10*
X8047600Y-14705000D02*
X8097600Y-14655000D01*
X8047600Y-14605000D01*
X7997600Y-14655000D01*
X8047600Y-14705000D01*
D11*
X8459981Y-14745476D02*
X8345695Y-14745476D01*
X8402838Y-14745476D02*
X8402838Y-14545476D01*
X8383790Y-14574048D01*
X8364743Y-14593095D01*
X8345695Y-14602619D01*
X8545695Y-14726428D02*
X8555219Y-14735952D01*
X8545695Y-14745476D01*
X8536171Y-14735952D01*
X8545695Y-14726428D01*
X8545695Y-14745476D01*
X8679029Y-14545476D02*
X8698076Y-14545476D01*
X8717124Y-14555000D01*
X8726648Y-14564524D01*
X8736171Y-14583571D01*
X8745695Y-14621667D01*
X8745695Y-14669286D01*
X8736171Y-14707381D01*
X8726648Y-14726428D01*
X8717124Y-14735952D01*
X8698076Y-14745476D01*
X8679029Y-14745476D01*
X8659981Y-14735952D01*
X8650457Y-14726428D01*
X8640933Y-14707381D01*
X8631410Y-14669286D01*
X8631410Y-14621667D01*
X8640933Y-14583571D01*
X8650457Y-14564524D01*
X8659981Y-14555000D01*
X8679029Y-14545476D01*
X8869505Y-14545476D02*
X8888552Y-14545476D01*
X8907600Y-14555000D01*
X8917124Y-14564524D01*
X8926648Y-14583571D01*
X8936171Y-14621667D01*
X8936171Y-14669286D01*
X8926648Y-14707381D01*
X8917124Y-14726428D01*
X8907600Y-14735952D01*
X8888552Y-14745476D01*
X8869505Y-14745476D01*
X8850457Y-14735952D01*
X8840933Y-14726428D01*
X8831410Y-14707381D01*
X8821886Y-14669286D01*
X8821886Y-14621667D01*
X8831410Y-14583571D01*
X8840933Y-14564524D01*
X8850457Y-14555000D01*
X8869505Y-14545476D01*
X9059981Y-14545476D02*
X9079029Y-14545476D01*
X9098076Y-14555000D01*
X9107600Y-14564524D01*
X9117124Y-14583571D01*
X9126648Y-14621667D01*
X9126648Y-14669286D01*
X9117124Y-14707381D01*
X9107600Y-14726428D01*
X9098076Y-14735952D01*
X9079029Y-14745476D01*
X9059981Y-14745476D01*
X9040933Y-14735952D01*
X9031410Y-14726428D01*
X9021886Y-14707381D01*
X9012362Y-14669286D01*
X9012362Y-14621667D01*
X9021886Y-14583571D01*
X9031410Y-14564524D01*
X9040933Y-14555000D01*
X9059981Y-14545476D01*
X9212362Y-14745476D02*
X9212362Y-14612143D01*
X9212362Y-14631190D02*
X9221886Y-14621667D01*
X9240933Y-14612143D01*
X9269505Y-14612143D01*
X9288552Y-14621667D01*
X9298076Y-14640714D01*
X9298076Y-14745476D01*
X9298076Y-14640714D02*
X9307600Y-14621667D01*
X9326648Y-14612143D01*
X9355219Y-14612143D01*
X9374267Y-14621667D01*
X9383790Y-14640714D01*
X9383790Y-14745476D01*
X9479029Y-14745476D02*
X9479029Y-14612143D01*
X9479029Y-14631190D02*
X9488552Y-14621667D01*
X9507600Y-14612143D01*
X9536171Y-14612143D01*
X9555219Y-14621667D01*
X9564743Y-14640714D01*
X9564743Y-14745476D01*
X9564743Y-14640714D02*
X9574267Y-14621667D01*
X9593314Y-14612143D01*
X9621886Y-14612143D01*
X9640933Y-14621667D01*
X9650457Y-14640714D01*
X9650457Y-14745476D01*
X10040933Y-14535952D02*
X9869505Y-14793095D01*
X10298076Y-14545476D02*
X10317124Y-14545476D01*
X10336171Y-14555000D01*
X10345695Y-14564524D01*
X10355219Y-14583571D01*
X10364743Y-14621667D01*
X10364743Y-14669286D01*
X10355219Y-14707381D01*
X10345695Y-14726428D01*
X10336171Y-14735952D01*
X10317124Y-14745476D01*
X10298076Y-14745476D01*
X10279029Y-14735952D01*
X10269505Y-14726428D01*
X10259981Y-14707381D01*
X10250457Y-14669286D01*
X10250457Y-14621667D01*
X10259981Y-14583571D01*
X10269505Y-14564524D01*
X10279029Y-14555000D01*
X10298076Y-14545476D01*
X10450457Y-14726428D02*
X10459981Y-14735952D01*
X10450457Y-14745476D01*
X10440933Y-14735952D01*
X10450457Y-14726428D01*
X10450457Y-14745476D01*
X10583790Y-14545476D02*
X10602838Y-14545476D01*
X10621886Y-14555000D01*
X10631410Y-14564524D01*
X10640933Y-14583571D01*
X10650457Y-14621667D01*
X10650457Y-14669286D01*
X10640933Y-14707381D01*
X10631410Y-14726428D01*
X10621886Y-14735952D01*
X10602838Y-14745476D01*
X10583790Y-14745476D01*
X10564743Y-14735952D01*
X10555219Y-14726428D01*
X10545695Y-14707381D01*
X10536171Y-14669286D01*
X10536171Y-14621667D01*
X10545695Y-14583571D01*
X10555219Y-14564524D01*
X10564743Y-14555000D01*
X10583790Y-14545476D01*
X10717124Y-14545476D02*
X10840933Y-14545476D01*
X10774267Y-14621667D01*
X10802838Y-14621667D01*
X10821886Y-14631190D01*
X10831410Y-14640714D01*
X10840933Y-14659762D01*
X10840933Y-14707381D01*
X10831410Y-14726428D01*
X10821886Y-14735952D01*
X10802838Y-14745476D01*
X10745695Y-14745476D01*
X10726648Y-14735952D01*
X10717124Y-14726428D01*
X10936171Y-14745476D02*
X10974267Y-14745476D01*
X10993314Y-14735952D01*
X11002838Y-14726428D01*
X11021886Y-14697857D01*
X11031410Y-14659762D01*
X11031410Y-14583571D01*
X11021886Y-14564524D01*
X11012362Y-14555000D01*
X10993314Y-14545476D01*
X10955219Y-14545476D01*
X10936171Y-14555000D01*
X10926648Y-14564524D01*
X10917124Y-14583571D01*
X10917124Y-14631190D01*
X10926648Y-14650238D01*
X10936171Y-14659762D01*
X10955219Y-14669286D01*
X10993314Y-14669286D01*
X11012362Y-14659762D01*
X11021886Y-14650238D01*
X11031410Y-14631190D01*
X11202838Y-14612143D02*
X11202838Y-14745476D01*
X11155219Y-14535952D02*
X11107600Y-14678809D01*
X11231409Y-14678809D01*
X11298076Y-14545476D02*
X11298076Y-14583571D01*
X11374267Y-14545476D02*
X11374267Y-14583571D01*
X11669505Y-14821667D02*
X11659981Y-14812143D01*
X11640933Y-14783571D01*
X11631409Y-14764524D01*
X11621886Y-14735952D01*
X11612362Y-14688333D01*
X11612362Y-14650238D01*
X11621886Y-14602619D01*
X11631409Y-14574048D01*
X11640933Y-14555000D01*
X11659981Y-14526428D01*
X11669505Y-14516905D01*
X11831409Y-14612143D02*
X11831409Y-14745476D01*
X11783790Y-14535952D02*
X11736171Y-14678809D01*
X11859981Y-14678809D01*
X12021886Y-14612143D02*
X12021886Y-14745476D01*
X11974267Y-14535952D02*
X11926648Y-14678809D01*
X12050457Y-14678809D01*
X12279028Y-14745476D02*
X12279028Y-14545476D01*
X12364743Y-14745476D02*
X12364743Y-14640714D01*
X12355219Y-14621667D01*
X12336171Y-14612143D01*
X12307600Y-14612143D01*
X12288552Y-14621667D01*
X12279028Y-14631190D01*
X12488552Y-14745476D02*
X12469505Y-14735952D01*
X12459981Y-14726428D01*
X12450457Y-14707381D01*
X12450457Y-14650238D01*
X12459981Y-14631190D01*
X12469505Y-14621667D01*
X12488552Y-14612143D01*
X12517124Y-14612143D01*
X12536171Y-14621667D01*
X12545695Y-14631190D01*
X12555219Y-14650238D01*
X12555219Y-14707381D01*
X12545695Y-14726428D01*
X12536171Y-14735952D01*
X12517124Y-14745476D01*
X12488552Y-14745476D01*
X12669505Y-14745476D02*
X12650457Y-14735952D01*
X12640933Y-14716905D01*
X12640933Y-14545476D01*
X12821886Y-14735952D02*
X12802838Y-14745476D01*
X12764743Y-14745476D01*
X12745695Y-14735952D01*
X12736171Y-14716905D01*
X12736171Y-14640714D01*
X12745695Y-14621667D01*
X12764743Y-14612143D01*
X12802838Y-14612143D01*
X12821886Y-14621667D01*
X12831409Y-14640714D01*
X12831409Y-14659762D01*
X12736171Y-14678809D01*
X12907600Y-14735952D02*
X12926648Y-14745476D01*
X12964743Y-14745476D01*
X12983790Y-14735952D01*
X12993314Y-14716905D01*
X12993314Y-14707381D01*
X12983790Y-14688333D01*
X12964743Y-14678809D01*
X12936171Y-14678809D01*
X12917124Y-14669286D01*
X12907600Y-14650238D01*
X12907600Y-14640714D01*
X12917124Y-14621667D01*
X12936171Y-14612143D01*
X12964743Y-14612143D01*
X12983790Y-14621667D01*
X13059981Y-14821667D02*
X13069505Y-14812143D01*
X13088552Y-14783571D01*
X13098076Y-14764524D01*
X13107600Y-14735952D01*
X13117124Y-14688333D01*
X13117124Y-14650238D01*
X13107600Y-14602619D01*
X13098076Y-14574048D01*
X13088552Y-14555000D01*
X13069505Y-14526428D01*
X13059981Y-14516905D01*
D16*
X7967600Y-14854000D02*
X8097600Y-14984000D01*
X8097600Y-14854000D02*
X7967600Y-14984000D01*
X8097600Y-14919000D02*
G75*
G03*
X8097600Y-14919000I-65000J0D01*
G01*
D11*
X8459981Y-15009476D02*
X8345695Y-15009476D01*
X8402838Y-15009476D02*
X8402838Y-14809476D01*
X8383790Y-14838048D01*
X8364743Y-14857095D01*
X8345695Y-14866619D01*
X8545695Y-14990428D02*
X8555219Y-14999952D01*
X8545695Y-15009476D01*
X8536171Y-14999952D01*
X8545695Y-14990428D01*
X8545695Y-15009476D01*
X8621886Y-14809476D02*
X8745695Y-14809476D01*
X8679029Y-14885667D01*
X8707600Y-14885667D01*
X8726648Y-14895190D01*
X8736171Y-14904714D01*
X8745695Y-14923762D01*
X8745695Y-14971381D01*
X8736171Y-14990428D01*
X8726648Y-14999952D01*
X8707600Y-15009476D01*
X8650457Y-15009476D01*
X8631410Y-14999952D01*
X8621886Y-14990428D01*
X8869505Y-14809476D02*
X8888552Y-14809476D01*
X8907600Y-14819000D01*
X8917124Y-14828524D01*
X8926648Y-14847571D01*
X8936171Y-14885667D01*
X8936171Y-14933286D01*
X8926648Y-14971381D01*
X8917124Y-14990428D01*
X8907600Y-14999952D01*
X8888552Y-15009476D01*
X8869505Y-15009476D01*
X8850457Y-14999952D01*
X8840933Y-14990428D01*
X8831410Y-14971381D01*
X8821886Y-14933286D01*
X8821886Y-14885667D01*
X8831410Y-14847571D01*
X8840933Y-14828524D01*
X8850457Y-14819000D01*
X8869505Y-14809476D01*
X9059981Y-14809476D02*
X9079029Y-14809476D01*
X9098076Y-14819000D01*
X9107600Y-14828524D01*
X9117124Y-14847571D01*
X9126648Y-14885667D01*
X9126648Y-14933286D01*
X9117124Y-14971381D01*
X9107600Y-14990428D01*
X9098076Y-14999952D01*
X9079029Y-15009476D01*
X9059981Y-15009476D01*
X9040933Y-14999952D01*
X9031410Y-14990428D01*
X9021886Y-14971381D01*
X9012362Y-14933286D01*
X9012362Y-14885667D01*
X9021886Y-14847571D01*
X9031410Y-14828524D01*
X9040933Y-14819000D01*
X9059981Y-14809476D01*
X9212362Y-15009476D02*
X9212362Y-14876143D01*
X9212362Y-14895190D02*
X9221886Y-14885667D01*
X9240933Y-14876143D01*
X9269505Y-14876143D01*
X9288552Y-14885667D01*
X9298076Y-14904714D01*
X9298076Y-15009476D01*
X9298076Y-14904714D02*
X9307600Y-14885667D01*
X9326648Y-14876143D01*
X9355219Y-14876143D01*
X9374267Y-14885667D01*
X9383790Y-14904714D01*
X9383790Y-15009476D01*
X9479029Y-15009476D02*
X9479029Y-14876143D01*
X9479029Y-14895190D02*
X9488552Y-14885667D01*
X9507600Y-14876143D01*
X9536171Y-14876143D01*
X9555219Y-14885667D01*
X9564743Y-14904714D01*
X9564743Y-15009476D01*
X9564743Y-14904714D02*
X9574267Y-14885667D01*
X9593314Y-14876143D01*
X9621886Y-14876143D01*
X9640933Y-14885667D01*
X9650457Y-14904714D01*
X9650457Y-15009476D01*
X10040933Y-14799952D02*
X9869505Y-15057095D01*
X10298076Y-14809476D02*
X10317124Y-14809476D01*
X10336171Y-14819000D01*
X10345695Y-14828524D01*
X10355219Y-14847571D01*
X10364743Y-14885667D01*
X10364743Y-14933286D01*
X10355219Y-14971381D01*
X10345695Y-14990428D01*
X10336171Y-14999952D01*
X10317124Y-15009476D01*
X10298076Y-15009476D01*
X10279029Y-14999952D01*
X10269505Y-14990428D01*
X10259981Y-14971381D01*
X10250457Y-14933286D01*
X10250457Y-14885667D01*
X10259981Y-14847571D01*
X10269505Y-14828524D01*
X10279029Y-14819000D01*
X10298076Y-14809476D01*
X10450457Y-14990428D02*
X10459981Y-14999952D01*
X10450457Y-15009476D01*
X10440933Y-14999952D01*
X10450457Y-14990428D01*
X10450457Y-15009476D01*
X10583790Y-14809476D02*
X10602838Y-14809476D01*
X10621886Y-14819000D01*
X10631410Y-14828524D01*
X10640933Y-14847571D01*
X10650457Y-14885667D01*
X10650457Y-14933286D01*
X10640933Y-14971381D01*
X10631410Y-14990428D01*
X10621886Y-14999952D01*
X10602838Y-15009476D01*
X10583790Y-15009476D01*
X10564743Y-14999952D01*
X10555219Y-14990428D01*
X10545695Y-14971381D01*
X10536171Y-14933286D01*
X10536171Y-14885667D01*
X10545695Y-14847571D01*
X10555219Y-14828524D01*
X10564743Y-14819000D01*
X10583790Y-14809476D01*
X10831410Y-14809476D02*
X10736171Y-14809476D01*
X10726648Y-14904714D01*
X10736171Y-14895190D01*
X10755219Y-14885667D01*
X10802838Y-14885667D01*
X10821886Y-14895190D01*
X10831410Y-14904714D01*
X10840933Y-14923762D01*
X10840933Y-14971381D01*
X10831410Y-14990428D01*
X10821886Y-14999952D01*
X10802838Y-15009476D01*
X10755219Y-15009476D01*
X10736171Y-14999952D01*
X10726648Y-14990428D01*
X11031410Y-15009476D02*
X10917124Y-15009476D01*
X10974267Y-15009476D02*
X10974267Y-14809476D01*
X10955219Y-14838048D01*
X10936171Y-14857095D01*
X10917124Y-14866619D01*
X11107600Y-14828524D02*
X11117124Y-14819000D01*
X11136171Y-14809476D01*
X11183790Y-14809476D01*
X11202838Y-14819000D01*
X11212362Y-14828524D01*
X11221886Y-14847571D01*
X11221886Y-14866619D01*
X11212362Y-14895190D01*
X11098076Y-15009476D01*
X11221886Y-15009476D01*
X11298076Y-14809476D02*
X11298076Y-14847571D01*
X11374267Y-14809476D02*
X11374267Y-14847571D01*
X11669505Y-15085667D02*
X11659981Y-15076143D01*
X11640933Y-15047571D01*
X11631409Y-15028524D01*
X11621886Y-14999952D01*
X11612362Y-14952333D01*
X11612362Y-14914238D01*
X11621886Y-14866619D01*
X11631409Y-14838048D01*
X11640933Y-14819000D01*
X11659981Y-14790428D01*
X11669505Y-14780905D01*
X11736171Y-14828524D02*
X11745695Y-14819000D01*
X11764743Y-14809476D01*
X11812362Y-14809476D01*
X11831409Y-14819000D01*
X11840933Y-14828524D01*
X11850457Y-14847571D01*
X11850457Y-14866619D01*
X11840933Y-14895190D01*
X11726648Y-15009476D01*
X11850457Y-15009476D01*
X12088552Y-15009476D02*
X12088552Y-14809476D01*
X12174267Y-15009476D02*
X12174267Y-14904714D01*
X12164743Y-14885667D01*
X12145695Y-14876143D01*
X12117124Y-14876143D01*
X12098076Y-14885667D01*
X12088552Y-14895190D01*
X12298076Y-15009476D02*
X12279028Y-14999952D01*
X12269505Y-14990428D01*
X12259981Y-14971381D01*
X12259981Y-14914238D01*
X12269505Y-14895190D01*
X12279028Y-14885667D01*
X12298076Y-14876143D01*
X12326648Y-14876143D01*
X12345695Y-14885667D01*
X12355219Y-14895190D01*
X12364743Y-14914238D01*
X12364743Y-14971381D01*
X12355219Y-14990428D01*
X12345695Y-14999952D01*
X12326648Y-15009476D01*
X12298076Y-15009476D01*
X12479028Y-15009476D02*
X12459981Y-14999952D01*
X12450457Y-14980905D01*
X12450457Y-14809476D01*
X12631409Y-14999952D02*
X12612362Y-15009476D01*
X12574267Y-15009476D01*
X12555219Y-14999952D01*
X12545695Y-14980905D01*
X12545695Y-14904714D01*
X12555219Y-14885667D01*
X12574267Y-14876143D01*
X12612362Y-14876143D01*
X12631409Y-14885667D01*
X12640933Y-14904714D01*
X12640933Y-14923762D01*
X12545695Y-14942809D01*
X12717124Y-14999952D02*
X12736171Y-15009476D01*
X12774267Y-15009476D01*
X12793314Y-14999952D01*
X12802838Y-14980905D01*
X12802838Y-14971381D01*
X12793314Y-14952333D01*
X12774267Y-14942809D01*
X12745695Y-14942809D01*
X12726648Y-14933286D01*
X12717124Y-14914238D01*
X12717124Y-14904714D01*
X12726648Y-14885667D01*
X12745695Y-14876143D01*
X12774267Y-14876143D01*
X12793314Y-14885667D01*
X12869505Y-15085667D02*
X12879028Y-15076143D01*
X12898076Y-15047571D01*
X12907600Y-15028524D01*
X12917124Y-14999952D01*
X12926648Y-14952333D01*
X12926648Y-14914238D01*
X12917124Y-14866619D01*
X12907600Y-14838048D01*
X12898076Y-14819000D01*
X12879028Y-14790428D01*
X12869505Y-14780905D01*
D17*
X7947600Y-15108000D02*
X8097600Y-15258000D01*
X8097600Y-15108000D02*
X7947600Y-15258000D01*
X8022600Y-15108000D02*
X8022600Y-15258000D01*
X7947600Y-15183000D02*
X8097600Y-15183000D01*
D11*
X8459981Y-15273476D02*
X8345695Y-15273476D01*
X8402838Y-15273476D02*
X8402838Y-15073476D01*
X8383790Y-15102048D01*
X8364743Y-15121095D01*
X8345695Y-15130619D01*
X8545695Y-15254428D02*
X8555219Y-15263952D01*
X8545695Y-15273476D01*
X8536171Y-15263952D01*
X8545695Y-15254428D01*
X8545695Y-15273476D01*
X8736171Y-15073476D02*
X8640933Y-15073476D01*
X8631410Y-15168714D01*
X8640933Y-15159190D01*
X8659981Y-15149667D01*
X8707600Y-15149667D01*
X8726648Y-15159190D01*
X8736171Y-15168714D01*
X8745695Y-15187762D01*
X8745695Y-15235381D01*
X8736171Y-15254428D01*
X8726648Y-15263952D01*
X8707600Y-15273476D01*
X8659981Y-15273476D01*
X8640933Y-15263952D01*
X8631410Y-15254428D01*
X8869505Y-15073476D02*
X8888552Y-15073476D01*
X8907600Y-15083000D01*
X8917124Y-15092524D01*
X8926648Y-15111571D01*
X8936171Y-15149667D01*
X8936171Y-15197286D01*
X8926648Y-15235381D01*
X8917124Y-15254428D01*
X8907600Y-15263952D01*
X8888552Y-15273476D01*
X8869505Y-15273476D01*
X8850457Y-15263952D01*
X8840933Y-15254428D01*
X8831410Y-15235381D01*
X8821886Y-15197286D01*
X8821886Y-15149667D01*
X8831410Y-15111571D01*
X8840933Y-15092524D01*
X8850457Y-15083000D01*
X8869505Y-15073476D01*
X9059981Y-15073476D02*
X9079029Y-15073476D01*
X9098076Y-15083000D01*
X9107600Y-15092524D01*
X9117124Y-15111571D01*
X9126648Y-15149667D01*
X9126648Y-15197286D01*
X9117124Y-15235381D01*
X9107600Y-15254428D01*
X9098076Y-15263952D01*
X9079029Y-15273476D01*
X9059981Y-15273476D01*
X9040933Y-15263952D01*
X9031410Y-15254428D01*
X9021886Y-15235381D01*
X9012362Y-15197286D01*
X9012362Y-15149667D01*
X9021886Y-15111571D01*
X9031410Y-15092524D01*
X9040933Y-15083000D01*
X9059981Y-15073476D01*
X9212362Y-15273476D02*
X9212362Y-15140143D01*
X9212362Y-15159190D02*
X9221886Y-15149667D01*
X9240933Y-15140143D01*
X9269505Y-15140143D01*
X9288552Y-15149667D01*
X9298076Y-15168714D01*
X9298076Y-15273476D01*
X9298076Y-15168714D02*
X9307600Y-15149667D01*
X9326648Y-15140143D01*
X9355219Y-15140143D01*
X9374267Y-15149667D01*
X9383790Y-15168714D01*
X9383790Y-15273476D01*
X9479029Y-15273476D02*
X9479029Y-15140143D01*
X9479029Y-15159190D02*
X9488552Y-15149667D01*
X9507600Y-15140143D01*
X9536171Y-15140143D01*
X9555219Y-15149667D01*
X9564743Y-15168714D01*
X9564743Y-15273476D01*
X9564743Y-15168714D02*
X9574267Y-15149667D01*
X9593314Y-15140143D01*
X9621886Y-15140143D01*
X9640933Y-15149667D01*
X9650457Y-15168714D01*
X9650457Y-15273476D01*
X10040933Y-15063952D02*
X9869505Y-15321095D01*
X10298076Y-15073476D02*
X10317124Y-15073476D01*
X10336171Y-15083000D01*
X10345695Y-15092524D01*
X10355219Y-15111571D01*
X10364743Y-15149667D01*
X10364743Y-15197286D01*
X10355219Y-15235381D01*
X10345695Y-15254428D01*
X10336171Y-15263952D01*
X10317124Y-15273476D01*
X10298076Y-15273476D01*
X10279029Y-15263952D01*
X10269505Y-15254428D01*
X10259981Y-15235381D01*
X10250457Y-15197286D01*
X10250457Y-15149667D01*
X10259981Y-15111571D01*
X10269505Y-15092524D01*
X10279029Y-15083000D01*
X10298076Y-15073476D01*
X10450457Y-15254428D02*
X10459981Y-15263952D01*
X10450457Y-15273476D01*
X10440933Y-15263952D01*
X10450457Y-15254428D01*
X10450457Y-15273476D01*
X10583790Y-15073476D02*
X10602838Y-15073476D01*
X10621886Y-15083000D01*
X10631410Y-15092524D01*
X10640933Y-15111571D01*
X10650457Y-15149667D01*
X10650457Y-15197286D01*
X10640933Y-15235381D01*
X10631410Y-15254428D01*
X10621886Y-15263952D01*
X10602838Y-15273476D01*
X10583790Y-15273476D01*
X10564743Y-15263952D01*
X10555219Y-15254428D01*
X10545695Y-15235381D01*
X10536171Y-15197286D01*
X10536171Y-15149667D01*
X10545695Y-15111571D01*
X10555219Y-15092524D01*
X10564743Y-15083000D01*
X10583790Y-15073476D01*
X10831410Y-15073476D02*
X10736171Y-15073476D01*
X10726648Y-15168714D01*
X10736171Y-15159190D01*
X10755219Y-15149667D01*
X10802838Y-15149667D01*
X10821886Y-15159190D01*
X10831410Y-15168714D01*
X10840933Y-15187762D01*
X10840933Y-15235381D01*
X10831410Y-15254428D01*
X10821886Y-15263952D01*
X10802838Y-15273476D01*
X10755219Y-15273476D01*
X10736171Y-15263952D01*
X10726648Y-15254428D01*
X10936171Y-15273476D02*
X10974267Y-15273476D01*
X10993314Y-15263952D01*
X11002838Y-15254428D01*
X11021886Y-15225857D01*
X11031410Y-15187762D01*
X11031410Y-15111571D01*
X11021886Y-15092524D01*
X11012362Y-15083000D01*
X10993314Y-15073476D01*
X10955219Y-15073476D01*
X10936171Y-15083000D01*
X10926648Y-15092524D01*
X10917124Y-15111571D01*
X10917124Y-15159190D01*
X10926648Y-15178238D01*
X10936171Y-15187762D01*
X10955219Y-15197286D01*
X10993314Y-15197286D01*
X11012362Y-15187762D01*
X11021886Y-15178238D01*
X11031410Y-15159190D01*
X11221886Y-15273476D02*
X11107600Y-15273476D01*
X11164743Y-15273476D02*
X11164743Y-15073476D01*
X11145695Y-15102048D01*
X11126648Y-15121095D01*
X11107600Y-15130619D01*
X11298076Y-15073476D02*
X11298076Y-15111571D01*
X11374267Y-15073476D02*
X11374267Y-15111571D01*
X11669505Y-15349667D02*
X11659981Y-15340143D01*
X11640933Y-15311571D01*
X11631409Y-15292524D01*
X11621886Y-15263952D01*
X11612362Y-15216333D01*
X11612362Y-15178238D01*
X11621886Y-15130619D01*
X11631409Y-15102048D01*
X11640933Y-15083000D01*
X11659981Y-15054428D01*
X11669505Y-15044905D01*
X11850457Y-15273476D02*
X11736171Y-15273476D01*
X11793314Y-15273476D02*
X11793314Y-15073476D01*
X11774267Y-15102048D01*
X11755219Y-15121095D01*
X11736171Y-15130619D01*
X12021886Y-15140143D02*
X12021886Y-15273476D01*
X11974267Y-15063952D02*
X11926648Y-15206809D01*
X12050457Y-15206809D01*
X12279028Y-15273476D02*
X12279028Y-15073476D01*
X12364743Y-15273476D02*
X12364743Y-15168714D01*
X12355219Y-15149667D01*
X12336171Y-15140143D01*
X12307600Y-15140143D01*
X12288552Y-15149667D01*
X12279028Y-15159190D01*
X12488552Y-15273476D02*
X12469505Y-15263952D01*
X12459981Y-15254428D01*
X12450457Y-15235381D01*
X12450457Y-15178238D01*
X12459981Y-15159190D01*
X12469505Y-15149667D01*
X12488552Y-15140143D01*
X12517124Y-15140143D01*
X12536171Y-15149667D01*
X12545695Y-15159190D01*
X12555219Y-15178238D01*
X12555219Y-15235381D01*
X12545695Y-15254428D01*
X12536171Y-15263952D01*
X12517124Y-15273476D01*
X12488552Y-15273476D01*
X12669505Y-15273476D02*
X12650457Y-15263952D01*
X12640933Y-15244905D01*
X12640933Y-15073476D01*
X12821886Y-15263952D02*
X12802838Y-15273476D01*
X12764743Y-15273476D01*
X12745695Y-15263952D01*
X12736171Y-15244905D01*
X12736171Y-15168714D01*
X12745695Y-15149667D01*
X12764743Y-15140143D01*
X12802838Y-15140143D01*
X12821886Y-15149667D01*
X12831409Y-15168714D01*
X12831409Y-15187762D01*
X12736171Y-15206809D01*
X12907600Y-15263952D02*
X12926648Y-15273476D01*
X12964743Y-15273476D01*
X12983790Y-15263952D01*
X12993314Y-15244905D01*
X12993314Y-15235381D01*
X12983790Y-15216333D01*
X12964743Y-15206809D01*
X12936171Y-15206809D01*
X12917124Y-15197286D01*
X12907600Y-15178238D01*
X12907600Y-15168714D01*
X12917124Y-15149667D01*
X12936171Y-15140143D01*
X12964743Y-15140143D01*
X12983790Y-15149667D01*
X13059981Y-15349667D02*
X13069505Y-15340143D01*
X13088552Y-15311571D01*
X13098076Y-15292524D01*
X13107600Y-15263952D01*
X13117124Y-15216333D01*
X13117124Y-15178238D01*
X13107600Y-15130619D01*
X13098076Y-15102048D01*
X13088552Y-15083000D01*
X13069505Y-15054428D01*
X13059981Y-15044905D01*
X7897600Y-15353000D02*
X8097600Y-15553000D01*
X8097600Y-15353000D02*
X7897600Y-15553000D01*
X8068311Y-15523711D02*
X8068311Y-15382289D01*
X7926889Y-15382289D01*
X7926889Y-15523711D01*
X8068311Y-15523711D01*
X8336171Y-15343476D02*
X8459981Y-15343476D01*
X8393314Y-15419667D01*
X8421886Y-15419667D01*
X8440933Y-15429190D01*
X8450457Y-15438714D01*
X8459981Y-15457762D01*
X8459981Y-15505381D01*
X8450457Y-15524428D01*
X8440933Y-15533952D01*
X8421886Y-15543476D01*
X8364743Y-15543476D01*
X8345695Y-15533952D01*
X8336171Y-15524428D01*
X8545695Y-15524428D02*
X8555219Y-15533952D01*
X8545695Y-15543476D01*
X8536171Y-15533952D01*
X8545695Y-15524428D01*
X8545695Y-15543476D01*
X8631410Y-15362524D02*
X8640933Y-15353000D01*
X8659981Y-15343476D01*
X8707600Y-15343476D01*
X8726648Y-15353000D01*
X8736171Y-15362524D01*
X8745695Y-15381571D01*
X8745695Y-15400619D01*
X8736171Y-15429190D01*
X8621886Y-15543476D01*
X8745695Y-15543476D01*
X8869505Y-15343476D02*
X8888552Y-15343476D01*
X8907600Y-15353000D01*
X8917124Y-15362524D01*
X8926648Y-15381571D01*
X8936171Y-15419667D01*
X8936171Y-15467286D01*
X8926648Y-15505381D01*
X8917124Y-15524428D01*
X8907600Y-15533952D01*
X8888552Y-15543476D01*
X8869505Y-15543476D01*
X8850457Y-15533952D01*
X8840933Y-15524428D01*
X8831410Y-15505381D01*
X8821886Y-15467286D01*
X8821886Y-15419667D01*
X8831410Y-15381571D01*
X8840933Y-15362524D01*
X8850457Y-15353000D01*
X8869505Y-15343476D01*
X9059981Y-15343476D02*
X9079029Y-15343476D01*
X9098076Y-15353000D01*
X9107600Y-15362524D01*
X9117124Y-15381571D01*
X9126648Y-15419667D01*
X9126648Y-15467286D01*
X9117124Y-15505381D01*
X9107600Y-15524428D01*
X9098076Y-15533952D01*
X9079029Y-15543476D01*
X9059981Y-15543476D01*
X9040933Y-15533952D01*
X9031410Y-15524428D01*
X9021886Y-15505381D01*
X9012362Y-15467286D01*
X9012362Y-15419667D01*
X9021886Y-15381571D01*
X9031410Y-15362524D01*
X9040933Y-15353000D01*
X9059981Y-15343476D01*
X9212362Y-15543476D02*
X9212362Y-15410143D01*
X9212362Y-15429190D02*
X9221886Y-15419667D01*
X9240933Y-15410143D01*
X9269505Y-15410143D01*
X9288552Y-15419667D01*
X9298076Y-15438714D01*
X9298076Y-15543476D01*
X9298076Y-15438714D02*
X9307600Y-15419667D01*
X9326648Y-15410143D01*
X9355219Y-15410143D01*
X9374267Y-15419667D01*
X9383790Y-15438714D01*
X9383790Y-15543476D01*
X9479029Y-15543476D02*
X9479029Y-15410143D01*
X9479029Y-15429190D02*
X9488552Y-15419667D01*
X9507600Y-15410143D01*
X9536171Y-15410143D01*
X9555219Y-15419667D01*
X9564743Y-15438714D01*
X9564743Y-15543476D01*
X9564743Y-15438714D02*
X9574267Y-15419667D01*
X9593314Y-15410143D01*
X9621886Y-15410143D01*
X9640933Y-15419667D01*
X9650457Y-15438714D01*
X9650457Y-15543476D01*
X10040933Y-15333952D02*
X9869505Y-15591095D01*
X10298076Y-15343476D02*
X10317124Y-15343476D01*
X10336171Y-15353000D01*
X10345695Y-15362524D01*
X10355219Y-15381571D01*
X10364743Y-15419667D01*
X10364743Y-15467286D01*
X10355219Y-15505381D01*
X10345695Y-15524428D01*
X10336171Y-15533952D01*
X10317124Y-15543476D01*
X10298076Y-15543476D01*
X10279029Y-15533952D01*
X10269505Y-15524428D01*
X10259981Y-15505381D01*
X10250457Y-15467286D01*
X10250457Y-15419667D01*
X10259981Y-15381571D01*
X10269505Y-15362524D01*
X10279029Y-15353000D01*
X10298076Y-15343476D01*
X10450457Y-15524428D02*
X10459981Y-15533952D01*
X10450457Y-15543476D01*
X10440933Y-15533952D01*
X10450457Y-15524428D01*
X10450457Y-15543476D01*
X10650457Y-15543476D02*
X10536171Y-15543476D01*
X10593314Y-15543476D02*
X10593314Y-15343476D01*
X10574267Y-15372048D01*
X10555219Y-15391095D01*
X10536171Y-15400619D01*
X10726648Y-15362524D02*
X10736171Y-15353000D01*
X10755219Y-15343476D01*
X10802838Y-15343476D01*
X10821886Y-15353000D01*
X10831410Y-15362524D01*
X10840933Y-15381571D01*
X10840933Y-15400619D01*
X10831410Y-15429190D01*
X10717124Y-15543476D01*
X10840933Y-15543476D01*
X11012362Y-15343476D02*
X10974267Y-15343476D01*
X10955219Y-15353000D01*
X10945695Y-15362524D01*
X10926648Y-15391095D01*
X10917124Y-15429190D01*
X10917124Y-15505381D01*
X10926648Y-15524428D01*
X10936171Y-15533952D01*
X10955219Y-15543476D01*
X10993314Y-15543476D01*
X11012362Y-15533952D01*
X11021886Y-15524428D01*
X11031410Y-15505381D01*
X11031410Y-15457762D01*
X11021886Y-15438714D01*
X11012362Y-15429190D01*
X10993314Y-15419667D01*
X10955219Y-15419667D01*
X10936171Y-15429190D01*
X10926648Y-15438714D01*
X10917124Y-15457762D01*
X11155219Y-15343476D02*
X11174267Y-15343476D01*
X11193314Y-15353000D01*
X11202838Y-15362524D01*
X11212362Y-15381571D01*
X11221886Y-15419667D01*
X11221886Y-15467286D01*
X11212362Y-15505381D01*
X11202838Y-15524428D01*
X11193314Y-15533952D01*
X11174267Y-15543476D01*
X11155219Y-15543476D01*
X11136171Y-15533952D01*
X11126648Y-15524428D01*
X11117124Y-15505381D01*
X11107600Y-15467286D01*
X11107600Y-15419667D01*
X11117124Y-15381571D01*
X11126648Y-15362524D01*
X11136171Y-15353000D01*
X11155219Y-15343476D01*
X11298076Y-15343476D02*
X11298076Y-15381571D01*
X11374267Y-15343476D02*
X11374267Y-15381571D01*
X11669505Y-15619667D02*
X11659981Y-15610143D01*
X11640933Y-15581571D01*
X11631409Y-15562524D01*
X11621886Y-15533952D01*
X11612362Y-15486333D01*
X11612362Y-15448238D01*
X11621886Y-15400619D01*
X11631409Y-15372048D01*
X11640933Y-15353000D01*
X11659981Y-15324428D01*
X11669505Y-15314905D01*
X11736171Y-15362524D02*
X11745695Y-15353000D01*
X11764743Y-15343476D01*
X11812362Y-15343476D01*
X11831409Y-15353000D01*
X11840933Y-15362524D01*
X11850457Y-15381571D01*
X11850457Y-15400619D01*
X11840933Y-15429190D01*
X11726648Y-15543476D01*
X11850457Y-15543476D01*
X12088552Y-15543476D02*
X12088552Y-15343476D01*
X12174267Y-15543476D02*
X12174267Y-15438714D01*
X12164743Y-15419667D01*
X12145695Y-15410143D01*
X12117124Y-15410143D01*
X12098076Y-15419667D01*
X12088552Y-15429190D01*
X12298076Y-15543476D02*
X12279028Y-15533952D01*
X12269505Y-15524428D01*
X12259981Y-15505381D01*
X12259981Y-15448238D01*
X12269505Y-15429190D01*
X12279028Y-15419667D01*
X12298076Y-15410143D01*
X12326648Y-15410143D01*
X12345695Y-15419667D01*
X12355219Y-15429190D01*
X12364743Y-15448238D01*
X12364743Y-15505381D01*
X12355219Y-15524428D01*
X12345695Y-15533952D01*
X12326648Y-15543476D01*
X12298076Y-15543476D01*
X12479028Y-15543476D02*
X12459981Y-15533952D01*
X12450457Y-15514905D01*
X12450457Y-15343476D01*
X12631409Y-15533952D02*
X12612362Y-15543476D01*
X12574267Y-15543476D01*
X12555219Y-15533952D01*
X12545695Y-15514905D01*
X12545695Y-15438714D01*
X12555219Y-15419667D01*
X12574267Y-15410143D01*
X12612362Y-15410143D01*
X12631409Y-15419667D01*
X12640933Y-15438714D01*
X12640933Y-15457762D01*
X12545695Y-15476809D01*
X12717124Y-15533952D02*
X12736171Y-15543476D01*
X12774267Y-15543476D01*
X12793314Y-15533952D01*
X12802838Y-15514905D01*
X12802838Y-15505381D01*
X12793314Y-15486333D01*
X12774267Y-15476809D01*
X12745695Y-15476809D01*
X12726648Y-15467286D01*
X12717124Y-15448238D01*
X12717124Y-15438714D01*
X12726648Y-15419667D01*
X12745695Y-15410143D01*
X12774267Y-15410143D01*
X12793314Y-15419667D01*
X12869505Y-15619667D02*
X12879028Y-15610143D01*
X12898076Y-15581571D01*
X12907600Y-15562524D01*
X12917124Y-15533952D01*
X12926648Y-15486333D01*
X12926648Y-15448238D01*
X12917124Y-15400619D01*
X12907600Y-15372048D01*
X12898076Y-15353000D01*
X12879028Y-15324428D01*
X12869505Y-15314905D01*
M02*
